<svg width="367" height="31" viewBox="0 0 367 31" fill="none" xmlns="http://www.w3.org/2000/svg">
<path d="M16.766 30.504C14.442 30.504 12.286 30.126 10.298 29.37C8.338 28.614 6.63 27.55 5.174 26.178C3.746 24.806 2.626 23.196 1.814 21.348C1.03 19.5 0.638 17.484 0.638 15.3C0.638 13.116 1.03 11.1 1.814 9.252C2.626 7.404 3.76 5.794 5.216 4.422C6.672 3.05 8.38 1.986 10.34 1.23C12.3 0.473999 14.428 0.0959995 16.724 0.0959995C19.048 0.0959995 21.176 0.473999 23.108 1.23C25.068 1.986 26.762 3.05 28.19 4.422C29.646 5.794 30.78 7.404 31.592 9.252C32.404 11.072 32.81 13.088 32.81 15.3C32.81 17.484 32.404 19.514 31.592 21.39C30.78 23.238 29.646 24.848 28.19 26.22C26.762 27.564 25.068 28.614 23.108 29.37C21.176 30.126 19.062 30.504 16.766 30.504ZM16.724 24.708C18.04 24.708 19.244 24.484 20.336 24.036C21.456 23.588 22.436 22.944 23.276 22.104C24.116 21.264 24.76 20.27 25.208 19.122C25.684 17.974 25.922 16.7 25.922 15.3C25.922 13.9 25.684 12.626 25.208 11.478C24.76 10.33 24.116 9.336 23.276 8.496C22.464 7.656 21.498 7.012 20.378 6.564C19.258 6.116 18.04 5.892 16.724 5.892C15.408 5.892 14.19 6.116 13.07 6.564C11.978 7.012 11.012 7.656 10.172 8.496C9.332 9.336 8.674 10.33 8.198 11.478C7.75 12.626 7.526 13.9 7.526 15.3C7.526 16.672 7.75 17.946 8.198 19.122C8.674 20.27 9.318 21.264 10.13 22.104C10.97 22.944 11.95 23.588 13.07 24.036C14.19 24.484 15.408 24.708 16.724 24.708ZM50.9855 30.504C46.8135 30.504 43.5515 29.342 41.1995 27.018C38.8475 24.694 37.6715 21.376 37.6715 17.064V0.599998H44.4755V16.812C44.4755 19.612 45.0495 21.628 46.1975 22.86C47.3455 24.092 48.9555 24.708 51.0275 24.708C53.0995 24.708 54.7095 24.092 55.8575 22.86C57.0055 21.628 57.5795 19.612 57.5795 16.812V0.599998H64.2995V17.064C64.2995 21.376 63.1235 24.694 60.7715 27.018C58.4195 29.342 55.1575 30.504 50.9855 30.504ZM71.0231 30V0.599998H83.7491C86.3811 0.599998 88.6491 1.034 90.5531 1.902C92.4571 2.742 93.9271 3.96 94.9631 5.556C95.9991 7.152 96.5171 9.056 96.5171 11.268C96.5171 13.452 95.9991 15.342 94.9631 16.938C93.9271 18.506 92.4571 19.71 90.5531 20.55C88.6491 21.39 86.3811 21.81 83.7491 21.81H74.8031L77.8271 18.828V30H71.0231ZM89.7131 30L82.3631 19.332H89.6291L97.0631 30H89.7131ZM77.8271 19.584L74.8031 16.392H83.3711C85.4711 16.392 87.0391 15.944 88.0751 15.048C89.1111 14.124 89.6291 12.864 89.6291 11.268C89.6291 9.644 89.1111 8.384 88.0751 7.488C87.0391 6.592 85.4711 6.144 83.3711 6.144H74.8031L77.8271 2.91V19.584ZM113.802 30V0.599998H120.606V30H113.802ZM127.584 30V0.599998H133.212L150.558 21.768H147.828V0.599998H154.548V30H148.962L131.574 8.832H134.304V30H127.584ZM161.504 30V0.599998H168.308V30H161.504ZM181.375 30V6.144H171.967V0.599998H197.587V6.144H188.179V30H181.375ZM201.248 30V0.599998H208.052V30H201.248ZM211.165 30L224.269 0.599998H230.989L244.135 30H236.995L226.243 4.044H228.931L218.137 30H211.165ZM217.717 23.7L219.523 18.534H234.643L236.491 23.7H217.717ZM251.799 30V6.144H242.391V0.599998H268.011V6.144H258.603V30H251.799ZM271.672 30V0.599998H278.476V30H271.672ZM294.15 30L281.466 0.599998H288.816L299.904 26.64H295.578L306.834 0.599998H313.596L300.87 30H294.15ZM322.308 12.444H336.462V17.736H322.308V12.444ZM322.812 24.54H338.814V30H316.05V0.599998H338.268V6.06H322.812V24.54ZM353.888 30.504C351.536 30.504 349.282 30.196 347.126 29.58C344.97 28.936 343.234 28.11 341.918 27.102L344.228 21.978C345.488 22.874 346.972 23.616 348.68 24.204C350.416 24.764 352.166 25.044 353.93 25.044C355.274 25.044 356.352 24.918 357.164 24.666C358.004 24.386 358.62 24.008 359.012 23.532C359.404 23.056 359.6 22.51 359.6 21.894C359.6 21.11 359.292 20.494 358.676 20.046C358.06 19.57 357.248 19.192 356.24 18.912C355.232 18.604 354.112 18.324 352.88 18.072C351.676 17.792 350.458 17.456 349.226 17.064C348.022 16.672 346.916 16.168 345.908 15.552C344.9 14.936 344.074 14.124 343.43 13.116C342.814 12.108 342.506 10.82 342.506 9.252C342.506 7.572 342.954 6.046 343.85 4.674C344.774 3.274 346.146 2.168 347.966 1.356C349.814 0.515999 352.124 0.0959995 354.896 0.0959995C356.744 0.0959995 358.564 0.319999 360.356 0.767998C362.148 1.188 363.73 1.832 365.102 2.7L363.002 7.866C361.63 7.082 360.258 6.508 358.886 6.144C357.514 5.752 356.17 5.556 354.854 5.556C353.538 5.556 352.46 5.71 351.62 6.018C350.78 6.326 350.178 6.732 349.814 7.236C349.45 7.712 349.268 8.272 349.268 8.916C349.268 9.672 349.576 10.288 350.192 10.764C350.808 11.212 351.62 11.576 352.628 11.856C353.636 12.136 354.742 12.416 355.946 12.696C357.178 12.976 358.396 13.298 359.6 13.662C360.832 14.026 361.952 14.516 362.96 15.132C363.968 15.748 364.78 16.56 365.396 17.568C366.04 18.576 366.362 19.85 366.362 21.39C366.362 23.042 365.9 24.554 364.976 25.926C364.052 27.298 362.666 28.404 360.818 29.244C358.998 30.084 356.688 30.504 353.888 30.504Z" fill="url(#paint0_linear_273_16)"/>
<defs>
<linearGradient id="paint0_linear_273_16" x1="183.5" y1="-11" x2="183.5" y2="44" gradientUnits="userSpaceOnUse">
<stop stop-color="#98430A"/>
<stop offset="0.65" stop-color="#FE7011"/>
<stop offset="0.98" stop-color="#FDD24C"/>
</linearGradient>
</defs>
</svg>
