<svg width="628" height="31" viewBox="0 0 628 31" fill="none" xmlns="http://www.w3.org/2000/svg">
<path d="M10.542 30L0.924 0.599998H7.98L16.338 26.64H12.81L21.546 0.599998H27.846L36.246 26.64H32.844L41.412 0.599998H47.922L38.304 30H30.996L23.562 7.152H25.494L17.85 30H10.542ZM57.9784 12.444H72.1324V17.736H57.9784V12.444ZM58.4824 24.54H74.4844V30H51.7204V0.599998H73.9384V6.06H58.4824V24.54ZM79.8981 30V0.599998H86.7021V24.456H101.444V30H79.8981ZM118.824 30.504C116.556 30.504 114.442 30.14 112.482 29.412C110.55 28.656 108.87 27.592 107.442 26.22C106.014 24.848 104.894 23.238 104.082 21.39C103.298 19.542 102.906 17.512 102.906 15.3C102.906 13.088 103.298 11.058 104.082 9.21C104.894 7.362 106.014 5.752 107.442 4.38C108.898 3.008 110.592 1.958 112.524 1.23C114.456 0.473999 116.57 0.0959995 118.866 0.0959995C121.414 0.0959995 123.71 0.544 125.754 1.44C127.826 2.308 129.562 3.596 130.962 5.304L126.594 9.336C125.586 8.188 124.466 7.334 123.234 6.774C122.002 6.186 120.658 5.892 119.202 5.892C117.83 5.892 116.57 6.116 115.422 6.564C114.274 7.012 113.28 7.656 112.44 8.496C111.6 9.336 110.942 10.33 110.466 11.478C110.018 12.626 109.794 13.9 109.794 15.3C109.794 16.7 110.018 17.974 110.466 19.122C110.942 20.27 111.6 21.264 112.44 22.104C113.28 22.944 114.274 23.588 115.422 24.036C116.57 24.484 117.83 24.708 119.202 24.708C120.658 24.708 122.002 24.428 123.234 23.868C124.466 23.28 125.586 22.398 126.594 21.222L130.962 25.254C129.562 26.962 127.826 28.264 125.754 29.16C123.71 30.056 121.4 30.504 118.824 30.504ZM149.221 30.504C146.897 30.504 144.741 30.126 142.753 29.37C140.793 28.614 139.085 27.55 137.629 26.178C136.201 24.806 135.081 23.196 134.269 21.348C133.485 19.5 133.093 17.484 133.093 15.3C133.093 13.116 133.485 11.1 134.269 9.252C135.081 7.404 136.215 5.794 137.671 4.422C139.127 3.05 140.835 1.986 142.795 1.23C144.755 0.473999 146.883 0.0959995 149.179 0.0959995C151.503 0.0959995 153.631 0.473999 155.563 1.23C157.523 1.986 159.217 3.05 160.645 4.422C162.101 5.794 163.235 7.404 164.047 9.252C164.859 11.072 165.265 13.088 165.265 15.3C165.265 17.484 164.859 19.514 164.047 21.39C163.235 23.238 162.101 24.848 160.645 26.22C159.217 27.564 157.523 28.614 155.563 29.37C153.631 30.126 151.517 30.504 149.221 30.504ZM149.179 24.708C150.495 24.708 151.699 24.484 152.791 24.036C153.911 23.588 154.891 22.944 155.731 22.104C156.571 21.264 157.215 20.27 157.663 19.122C158.139 17.974 158.377 16.7 158.377 15.3C158.377 13.9 158.139 12.626 157.663 11.478C157.215 10.33 156.571 9.336 155.731 8.496C154.919 7.656 153.953 7.012 152.833 6.564C151.713 6.116 150.495 5.892 149.179 5.892C147.863 5.892 146.645 6.116 145.525 6.564C144.433 7.012 143.467 7.656 142.627 8.496C141.787 9.336 141.129 10.33 140.653 11.478C140.205 12.626 139.981 13.9 139.981 15.3C139.981 16.672 140.205 17.946 140.653 19.122C141.129 20.27 141.773 21.264 142.585 22.104C143.425 22.944 144.405 23.588 145.525 24.036C146.645 24.484 147.863 24.708 149.179 24.708ZM170.379 30V0.599998H176.007L188.523 21.348H185.541L197.847 0.599998H203.433L203.517 30H197.133L197.091 10.386H198.267L188.439 26.892H185.373L175.335 10.386H176.763V30H170.379ZM216.75 12.444H230.904V17.736H216.75V12.444ZM217.254 24.54H233.256V30H210.492V0.599998H232.71V6.06H217.254V24.54ZM256.654 30V6.144H247.246V0.599998H272.866V6.144H263.458V30H256.654ZM290.397 30.504C288.073 30.504 285.917 30.126 283.929 29.37C281.969 28.614 280.261 27.55 278.805 26.178C277.377 24.806 276.257 23.196 275.445 21.348C274.661 19.5 274.269 17.484 274.269 15.3C274.269 13.116 274.661 11.1 275.445 9.252C276.257 7.404 277.391 5.794 278.847 4.422C280.303 3.05 282.011 1.986 283.971 1.23C285.931 0.473999 288.059 0.0959995 290.355 0.0959995C292.679 0.0959995 294.807 0.473999 296.739 1.23C298.699 1.986 300.393 3.05 301.821 4.422C303.277 5.794 304.411 7.404 305.223 9.252C306.035 11.072 306.441 13.088 306.441 15.3C306.441 17.484 306.035 19.514 305.223 21.39C304.411 23.238 303.277 24.848 301.821 26.22C300.393 27.564 298.699 28.614 296.739 29.37C294.807 30.126 292.693 30.504 290.397 30.504ZM290.355 24.708C291.671 24.708 292.875 24.484 293.967 24.036C295.087 23.588 296.067 22.944 296.907 22.104C297.747 21.264 298.391 20.27 298.839 19.122C299.315 17.974 299.553 16.7 299.553 15.3C299.553 13.9 299.315 12.626 298.839 11.478C298.391 10.33 297.747 9.336 296.907 8.496C296.095 7.656 295.129 7.012 294.009 6.564C292.889 6.116 291.671 5.892 290.355 5.892C289.039 5.892 287.821 6.116 286.701 6.564C285.609 7.012 284.643 7.656 283.803 8.496C282.963 9.336 282.305 10.33 281.829 11.478C281.381 12.626 281.157 13.9 281.157 15.3C281.157 16.672 281.381 17.946 281.829 19.122C282.305 20.27 282.949 21.264 283.761 22.104C284.601 22.944 285.581 23.588 286.701 24.036C287.821 24.484 289.039 24.708 290.355 24.708ZM343.609 0.599998H350.413V30H343.609V0.599998ZM330.253 30H323.449V0.599998H330.253V30ZM344.113 17.946H329.749V12.192H344.113V17.946ZM363.627 12.444H377.781V17.736H363.627V12.444ZM364.131 24.54H380.133V30H357.369V0.599998H379.587V6.06H364.131V24.54ZM381.683 30L394.787 0.599998H401.507L414.653 30H407.513L396.761 4.044H399.449L388.655 30H381.683ZM388.235 23.7L390.041 18.534H405.161L407.009 23.7H388.235ZM417.703 30V0.599998H424.507V24.456H439.249V30H417.703ZM446.392 30V6.144H436.984V0.599998H462.604V6.144H453.196V30H446.392ZM486.425 0.599998H493.229V30H486.425V0.599998ZM473.069 30H466.265V0.599998H473.069V30ZM486.929 17.946H472.565V12.192H486.929V17.946ZM526.15 30.504C523.882 30.504 521.768 30.14 519.808 29.412C517.876 28.656 516.196 27.592 514.768 26.22C513.34 24.848 512.22 23.238 511.408 21.39C510.624 19.542 510.232 17.512 510.232 15.3C510.232 13.088 510.624 11.058 511.408 9.21C512.22 7.362 513.34 5.752 514.768 4.38C516.224 3.008 517.918 1.958 519.85 1.23C521.782 0.473999 523.896 0.0959995 526.192 0.0959995C528.74 0.0959995 531.036 0.544 533.08 1.44C535.152 2.308 536.888 3.596 538.288 5.304L533.92 9.336C532.912 8.188 531.792 7.334 530.56 6.774C529.328 6.186 527.984 5.892 526.528 5.892C525.156 5.892 523.896 6.116 522.748 6.564C521.6 7.012 520.606 7.656 519.766 8.496C518.926 9.336 518.268 10.33 517.792 11.478C517.344 12.626 517.12 13.9 517.12 15.3C517.12 16.7 517.344 17.974 517.792 19.122C518.268 20.27 518.926 21.264 519.766 22.104C520.606 22.944 521.6 23.588 522.748 24.036C523.896 24.484 525.156 24.708 526.528 24.708C527.984 24.708 529.328 24.428 530.56 23.868C531.792 23.28 532.912 22.398 533.92 21.222L538.288 25.254C536.888 26.962 535.152 28.264 533.08 29.16C531.036 30.056 528.726 30.504 526.15 30.504ZM542.882 30V0.599998H549.686V24.456H564.428V30H542.882ZM580.964 30.504C576.792 30.504 573.53 29.342 571.178 27.018C568.826 24.694 567.65 21.376 567.65 17.064V0.599998H574.454V16.812C574.454 19.612 575.028 21.628 576.176 22.86C577.324 24.092 578.934 24.708 581.006 24.708C583.078 24.708 584.688 24.092 585.836 22.86C586.984 21.628 587.558 19.612 587.558 16.812V0.599998H594.278V17.064C594.278 21.376 593.102 24.694 590.75 27.018C588.398 29.342 585.136 30.504 580.964 30.504ZM601.002 30V0.599998H615.366C619.062 0.599998 621.834 1.3 623.682 2.7C625.558 4.1 626.496 5.948 626.496 8.244C626.496 9.784 626.118 11.128 625.362 12.276C624.606 13.396 623.57 14.264 622.254 14.88C620.938 15.496 619.426 15.804 617.718 15.804L618.516 14.082C620.364 14.082 622.002 14.39 623.43 15.006C624.858 15.594 625.964 16.476 626.748 17.652C627.56 18.828 627.966 20.27 627.966 21.978C627.966 24.498 626.972 26.472 624.984 27.9C622.996 29.3 620.07 30 616.206 30H601.002ZM607.764 24.876H615.702C617.466 24.876 618.796 24.596 619.692 24.036C620.616 23.448 621.078 22.524 621.078 21.264C621.078 20.032 620.616 19.122 619.692 18.534C618.796 17.918 617.466 17.61 615.702 17.61H607.26V12.654H614.526C616.178 12.654 617.438 12.374 618.306 11.814C619.202 11.226 619.65 10.344 619.65 9.168C619.65 8.02 619.202 7.166 618.306 6.606C617.438 6.018 616.178 5.724 614.526 5.724H607.764V24.876Z" fill="url(#paint0_linear_367_298)"/>
<defs>
<linearGradient id="paint0_linear_367_298" x1="320.5" y1="-11" x2="320.5" y2="44" gradientUnits="userSpaceOnUse">
<stop stop-color="#98430A"/>
<stop offset="0.65" stop-color="#FE7011"/>
<stop offset="0.98" stop-color="#FDD24C"/>
</linearGradient>
</defs>
</svg>
