<svg width="164" height="28" viewBox="0 0 164 28" fill="none" xmlns="http://www.w3.org/2000/svg">
<path d="M17.964 22.536H8.532L7.02 27H0.576L9.72 1.728H16.848L25.992 27H19.476L17.964 22.536ZM16.38 17.784L13.248 8.532L10.152 17.784H16.38ZM34.931 9.756C35.507 8.82 36.335 8.064 37.415 7.488C38.495 6.912 39.731 6.624 41.123 6.624C42.779 6.624 44.279 7.044 45.623 7.884C46.967 8.724 48.023 9.924 48.791 11.484C49.583 13.044 49.979 14.856 49.979 16.92C49.979 18.984 49.583 20.808 48.791 22.392C48.023 23.952 46.967 25.164 45.623 26.028C44.279 26.868 42.779 27.288 41.123 27.288C39.707 27.288 38.471 27.012 37.415 26.46C36.359 25.884 35.531 25.128 34.931 24.192V27H28.775V0.36H34.931V9.756ZM43.715 16.92C43.715 15.384 43.283 14.184 42.419 13.32C41.579 12.432 40.535 11.988 39.287 11.988C38.063 11.988 37.019 12.432 36.155 13.32C35.315 14.208 34.895 15.42 34.895 16.956C34.895 18.492 35.315 19.704 36.155 20.592C37.019 21.48 38.063 21.924 39.287 21.924C40.511 21.924 41.555 21.48 42.419 20.592C43.283 19.68 43.715 18.456 43.715 16.92ZM62.3526 27.288C60.3846 27.288 58.6086 26.868 57.0246 26.028C55.4646 25.188 54.2286 23.988 53.3166 22.428C52.4286 20.868 51.9846 19.044 51.9846 16.956C51.9846 14.892 52.4406 13.08 53.3526 11.52C54.2646 9.936 55.5126 8.724 57.0966 7.884C58.6806 7.044 60.4566 6.624 62.4246 6.624C64.3926 6.624 66.1686 7.044 67.7526 7.884C69.3366 8.724 70.5846 9.936 71.4966 11.52C72.4086 13.08 72.8646 14.892 72.8646 16.956C72.8646 19.02 72.3966 20.844 71.4606 22.428C70.5486 23.988 69.2886 25.188 67.6806 26.028C66.0966 26.868 64.3206 27.288 62.3526 27.288ZM62.3526 21.96C63.5286 21.96 64.5246 21.528 65.3406 20.664C66.1806 19.8 66.6006 18.564 66.6006 16.956C66.6006 15.348 66.1926 14.112 65.3766 13.248C64.5846 12.384 63.6006 11.952 62.4246 11.952C61.2246 11.952 60.2286 12.384 59.4366 13.248C58.6446 14.088 58.2486 15.324 58.2486 16.956C58.2486 18.564 58.6326 19.8 59.4006 20.664C60.1926 21.528 61.1766 21.96 62.3526 21.96ZM95.9664 6.912V27H89.8104V24.264C89.1864 25.152 88.3344 25.872 87.2544 26.424C86.1984 26.952 85.0224 27.216 83.7264 27.216C82.1904 27.216 80.8344 26.88 79.6584 26.208C78.4824 25.512 77.5704 24.516 76.9224 23.22C76.2744 21.924 75.9504 20.4 75.9504 18.648V6.912H82.0704V17.82C82.0704 19.164 82.4184 20.208 83.1144 20.952C83.8104 21.696 84.7464 22.068 85.9224 22.068C87.1224 22.068 88.0704 21.696 88.7664 20.952C89.4624 20.208 89.8104 19.164 89.8104 17.82V6.912H95.9664ZM111.584 21.78V27H108.452C106.22 27 104.48 26.46 103.232 25.38C101.984 24.276 101.36 22.488 101.36 20.016V12.024H98.9123V6.912H101.36V2.016H107.516V6.912H111.548V12.024H107.516V20.088C107.516 20.688 107.66 21.12 107.948 21.384C108.236 21.648 108.716 21.78 109.388 21.78H111.584ZM142.478 6.912V27H136.322V24.264C135.698 25.152 134.846 25.872 133.766 26.424C132.71 26.952 131.534 27.216 130.238 27.216C128.702 27.216 127.346 26.88 126.17 26.208C124.994 25.512 124.082 24.516 123.434 23.22C122.786 21.924 122.462 20.4 122.462 18.648V6.912H128.582V17.82C128.582 19.164 128.93 20.208 129.626 20.952C130.322 21.696 131.258 22.068 132.434 22.068C133.634 22.068 134.582 21.696 135.278 20.952C135.974 20.208 136.322 19.164 136.322 17.82V6.912H142.478ZM155.072 27.288C153.32 27.288 151.76 26.988 150.392 26.388C149.024 25.788 147.944 24.972 147.152 23.94C146.36 22.884 145.916 21.708 145.82 20.412H151.904C151.976 21.108 152.3 21.672 152.876 22.104C153.452 22.536 154.16 22.752 155 22.752C155.768 22.752 156.356 22.608 156.764 22.32C157.196 22.008 157.412 21.612 157.412 21.132C157.412 20.556 157.112 20.136 156.512 19.872C155.912 19.584 154.94 19.272 153.596 18.936C152.156 18.6 150.956 18.252 149.996 17.892C149.036 17.508 148.208 16.92 147.512 16.128C146.816 15.312 146.468 14.22 146.468 12.852C146.468 11.7 146.78 10.656 147.404 9.72C148.052 8.76 148.988 8.004 150.212 7.452C151.46 6.9 152.936 6.624 154.64 6.624C157.16 6.624 159.14 7.248 160.58 8.496C162.044 9.744 162.884 11.4 163.1 13.464H157.412C157.316 12.768 157.004 12.216 156.476 11.808C155.972 11.4 155.3 11.196 154.46 11.196C153.74 11.196 153.188 11.34 152.804 11.628C152.42 11.892 152.228 12.264 152.228 12.744C152.228 13.32 152.528 13.752 153.128 14.04C153.752 14.328 154.712 14.616 156.008 14.904C157.496 15.288 158.708 15.672 159.644 16.056C160.58 16.416 161.396 17.016 162.092 17.856C162.812 18.672 163.184 19.776 163.208 21.168C163.208 22.344 162.872 23.4 162.2 24.336C161.552 25.248 160.604 25.968 159.356 26.496C158.132 27.024 156.704 27.288 155.072 27.288Z" fill="url(#paint0_linear_334_153)"/>
<defs>
<linearGradient id="paint0_linear_334_153" x1="82.5" y1="-13" x2="82.5" y2="56.9545" gradientUnits="userSpaceOnUse">
<stop stop-color="#98430A"/>
<stop offset="0.655" stop-color="#FE7011"/>
<stop offset="0.975" stop-color="#FDD24C"/>
</linearGradient>
</defs>
</svg>
