<svg width="80" height="81" viewBox="0 0 80 81" fill="none" xmlns="http://www.w3.org/2000/svg">
<path d="M58.2812 65.7562L42.5413 57.0373C48.3913 52.4348 49.9801 43.3898 49.9801 38.3185V27.7623C49.9801 20.7723 40.6926 12.9873 31.3638 12.9873C22.0376 12.9873 12.5038 20.7735 12.5038 27.7623V38.3185C12.5038 42.9298 14.455 52.2586 20.3651 56.9973L4.21875 65.7561C4.21875 65.7561 0 67.6361 0 69.9798V76.3148C0 78.6461 1.89242 80.5386 4.21875 80.5386H58.2812C60.6099 80.5386 62.5024 78.6461 62.5024 76.3148V69.9799C62.5024 67.4949 58.2812 65.7562 58.2812 65.7562L58.2812 65.7562ZM57.5026 75.5387H5.00016V71.0687C5.35891 70.8076 5.86016 70.505 6.25516 70.3237C6.37258 70.27 6.49008 70.2137 6.60133 70.15L22.7488 61.3925C24.2213 60.5937 25.1976 59.1125 25.3463 57.445C25.4951 55.7775 24.7988 54.1437 23.4938 53.0962C19.3013 49.735 17.5051 42.29 17.5051 38.3187V27.7625C17.5051 24.1712 24.2751 17.9875 31.3651 17.9875C38.5863 17.9875 44.9813 24.0863 44.9813 27.7625V38.3187C44.9813 42.235 43.7651 49.7125 39.4513 53.1062C38.8011 53.6183 38.2879 54.2835 37.9576 55.0424C37.6274 55.8013 37.4904 56.6302 37.5588 57.455C37.6284 58.2794 37.9012 59.0737 38.3527 59.7669C38.8042 60.4601 39.4205 61.0307 40.1463 61.4276L55.8863 70.1463C56.0252 70.2225 56.2014 70.305 56.3477 70.3688C56.7164 70.5251 57.1701 70.7862 57.5026 71.0163V75.5387ZM75.7789 53.3075L59.8051 44.5887C65.6551 39.9862 67.4788 30.9412 67.4788 25.8698V15.3136C67.4788 8.32359 57.9576 0.459839 48.6288 0.459839C42.5663 0.459839 36.3677 3.75609 32.7601 7.97742C34.8177 8.10484 37.0864 8.10742 39.0464 8.73242C41.6801 6.68117 45.0127 5.46117 48.6289 5.46117C55.8501 5.46117 62.4788 11.6373 62.4788 15.3149V25.8712C62.4788 29.7873 61.0288 37.2649 56.7151 40.6587C56.0648 41.1707 55.5516 41.8359 55.2214 42.5948C54.8911 43.3537 54.7541 44.1826 54.8226 45.0074C54.8922 45.8318 55.1649 46.626 55.6165 47.3193C56.068 48.0125 56.6842 48.583 57.4101 48.9799L73.3839 57.6987C73.5227 57.7749 73.6989 57.8574 73.8452 57.9212C74.2139 58.0774 74.6676 58.3387 75.0001 58.5687V63.0149H64.9076C66.4313 64.1649 66.8926 65.8099 67.4839 68.0149H75.7802C78.1088 68.0149 80.0013 66.1224 80.0013 63.7912V57.5336C80.0001 55.0461 75.7788 53.3073 75.7788 53.3073L75.7789 53.3075Z" fill="#05A13E"/>
</svg>
