<svg width="248" height="64" viewBox="0 0 248 64" fill="none" xmlns="http://www.w3.org/2000/svg">
<path d="M50.56 34.71L46.028 50H43.19L39.978 38.428L36.568 50L33.752 50.022L29.418 34.71H32.08L35.248 47.162L38.68 34.71H41.496L44.686 47.096L47.876 34.71H50.56ZM63.7385 43.642C63.7385 44.0967 63.7092 44.5073 63.6505 44.874H54.3885C54.4618 45.842 54.8212 46.6193 55.4665 47.206C56.1118 47.7927 56.9038 48.086 57.8425 48.086C59.1918 48.086 60.1452 47.5213 60.7025 46.392H63.4085C63.0418 47.5067 62.3745 48.4233 61.4065 49.142C60.4532 49.846 59.2652 50.198 57.8425 50.198C56.6838 50.198 55.6425 49.9413 54.7185 49.428C53.8092 48.9 53.0905 48.1667 52.5625 47.228C52.0492 46.2747 51.7925 45.1747 51.7925 43.928C51.7925 42.6813 52.0418 41.5887 52.5405 40.65C53.0538 39.6967 53.7652 38.9633 54.6745 38.45C55.5985 37.9367 56.6545 37.68 57.8425 37.68C58.9865 37.68 60.0058 37.9293 60.9005 38.428C61.7952 38.9267 62.4918 39.6307 62.9905 40.54C63.4892 41.4347 63.7385 42.4687 63.7385 43.642ZM61.1205 42.85C61.1058 41.926 60.7758 41.1853 60.1305 40.628C59.4852 40.0707 58.6858 39.792 57.7325 39.792C56.8672 39.792 56.1265 40.0707 55.5105 40.628C54.8945 41.1707 54.5278 41.9113 54.4105 42.85H61.1205ZM71.0855 43.928C71.0855 42.6813 71.3348 41.5887 71.8335 40.65C72.3468 39.6967 73.0508 38.9633 73.9455 38.45C74.8402 37.9367 75.8668 37.68 77.0255 37.68C78.4922 37.68 79.7022 38.032 80.6555 38.736C81.6235 39.4253 82.2762 40.4153 82.6135 41.706H79.9075C79.6875 41.1047 79.3355 40.6353 78.8515 40.298C78.3675 39.9607 77.7588 39.792 77.0255 39.792C75.9988 39.792 75.1775 40.1587 74.5615 40.892C73.9602 41.6107 73.6595 42.6227 73.6595 43.928C73.6595 45.2333 73.9602 46.2527 74.5615 46.986C75.1775 47.7193 75.9988 48.086 77.0255 48.086C78.4775 48.086 79.4382 47.448 79.9075 46.172H82.6135C82.2615 47.404 81.6015 48.3867 80.6335 49.12C79.6655 49.8387 78.4628 50.198 77.0255 50.198C75.8668 50.198 74.8402 49.9413 73.9455 49.428C73.0508 48.9 72.3468 48.1667 71.8335 47.228C71.3348 46.2747 71.0855 45.1747 71.0855 43.928ZM84.2769 43.884C84.2769 42.6667 84.5262 41.5887 85.0249 40.65C85.5382 39.7113 86.2276 38.9853 87.0929 38.472C87.9729 37.944 88.9409 37.68 89.9969 37.68C90.9502 37.68 91.7789 37.8707 92.4829 38.252C93.2016 38.6187 93.7736 39.0807 94.1989 39.638V37.878H96.7289V50H94.1989V48.196C93.7736 48.768 93.1942 49.2447 92.4609 49.626C91.7276 50.0073 90.8916 50.198 89.9529 50.198C88.9116 50.198 87.9582 49.934 87.0929 49.406C86.2276 48.8633 85.5382 48.1153 85.0249 47.162C84.5262 46.194 84.2769 45.1013 84.2769 43.884ZM94.1989 43.928C94.1989 43.092 94.0229 42.366 93.6709 41.75C93.3336 41.134 92.8862 40.6647 92.3289 40.342C91.7716 40.0193 91.1702 39.858 90.5249 39.858C89.8796 39.858 89.2782 40.0193 88.7209 40.342C88.1636 40.65 87.7089 41.112 87.3569 41.728C87.0196 42.3293 86.8509 43.048 86.8509 43.884C86.8509 44.72 87.0196 45.4533 87.3569 46.084C87.7089 46.7147 88.1636 47.1987 88.7209 47.536C89.2929 47.8587 89.8942 48.02 90.5249 48.02C91.1702 48.02 91.7716 47.8587 92.3289 47.536C92.8862 47.2133 93.3336 46.744 93.6709 46.128C94.0229 45.4973 94.1989 44.764 94.1989 43.928ZM102.531 39.638C102.898 39.022 103.382 38.5453 103.983 38.208C104.599 37.856 105.325 37.68 106.161 37.68V40.276H105.523C104.54 40.276 103.792 40.5253 103.279 41.024C102.78 41.5227 102.531 42.388 102.531 43.62V50H100.023V37.878H102.531V39.638ZM110.974 39.638C111.341 39.022 111.825 38.5453 112.426 38.208C113.042 37.856 113.768 37.68 114.604 37.68V40.276H113.966C112.984 40.276 112.236 40.5253 111.722 41.024C111.224 41.5227 110.974 42.388 110.974 43.62V50H108.466V37.878H110.974V39.638ZM127.822 37.878L120.386 55.698H117.79L120.254 49.802L115.48 37.878H118.274L121.684 47.118L125.226 37.878H127.822ZM134.593 43.884C134.593 42.6667 134.843 41.5887 135.341 40.65C135.855 39.7113 136.544 38.9853 137.409 38.472C138.289 37.944 139.257 37.68 140.313 37.68C141.267 37.68 142.095 37.8707 142.799 38.252C143.518 38.6187 144.09 39.0807 144.515 39.638V37.878H147.045V50H144.515V48.196C144.09 48.768 143.511 49.2447 142.777 49.626C142.044 50.0073 141.208 50.198 140.269 50.198C139.228 50.198 138.275 49.934 137.409 49.406C136.544 48.8633 135.855 48.1153 135.341 47.162C134.843 46.194 134.593 45.1013 134.593 43.884ZM144.515 43.928C144.515 43.092 144.339 42.366 143.987 41.75C143.65 41.134 143.203 40.6647 142.645 40.342C142.088 40.0193 141.487 39.858 140.841 39.858C140.196 39.858 139.595 40.0193 139.037 40.342C138.48 40.65 138.025 41.112 137.673 41.728C137.336 42.3293 137.167 43.048 137.167 43.884C137.167 44.72 137.336 45.4533 137.673 46.084C138.025 46.7147 138.48 47.1987 139.037 47.536C139.609 47.8587 140.211 48.02 140.841 48.02C141.487 48.02 142.088 47.8587 142.645 47.536C143.203 47.2133 143.65 46.744 143.987 46.128C144.339 45.4973 144.515 44.764 144.515 43.928ZM158.562 33.72V50H156.054V33.72H158.562ZM172.965 43.642C172.965 44.0967 172.936 44.5073 172.877 44.874H163.615C163.688 45.842 164.048 46.6193 164.693 47.206C165.338 47.7927 166.13 48.086 167.069 48.086C168.418 48.086 169.372 47.5213 169.929 46.392H172.635C172.268 47.5067 171.601 48.4233 170.633 49.142C169.68 49.846 168.492 50.198 167.069 50.198C165.91 50.198 164.869 49.9413 163.945 49.428C163.036 48.9 162.317 48.1667 161.789 47.228C161.276 46.2747 161.019 45.1747 161.019 43.928C161.019 42.6813 161.268 41.5887 161.767 40.65C162.28 39.6967 162.992 38.9633 163.901 38.45C164.825 37.9367 165.881 37.68 167.069 37.68C168.213 37.68 169.232 37.9293 170.127 38.428C171.022 38.9267 171.718 39.6307 172.217 40.54C172.716 41.4347 172.965 42.4687 172.965 43.642ZM170.347 42.85C170.332 41.926 170.002 41.1853 169.357 40.628C168.712 40.0707 167.912 39.792 166.959 39.792C166.094 39.792 165.353 40.0707 164.737 40.628C164.121 41.1707 163.754 41.9113 163.637 42.85H170.347ZM180.317 37.68C181.256 37.68 182.085 37.8707 182.803 38.252C183.537 38.6187 184.109 39.0807 184.519 39.638V37.878H187.049V50.198C187.049 51.3127 186.815 52.3027 186.345 53.168C185.876 54.048 185.194 54.7373 184.299 55.236C183.419 55.7347 182.363 55.984 181.131 55.984C179.489 55.984 178.125 55.5953 177.039 54.818C175.954 54.0553 175.338 53.014 175.191 51.694H177.677C177.868 52.3247 178.271 52.8307 178.887 53.212C179.518 53.608 180.266 53.806 181.131 53.806C182.143 53.806 182.957 53.498 183.573 52.882C184.204 52.266 184.519 51.3713 184.519 50.198V48.174C184.094 48.746 183.515 49.23 182.781 49.626C182.063 50.0073 181.241 50.198 180.317 50.198C179.261 50.198 178.293 49.934 177.413 49.406C176.548 48.8633 175.859 48.1153 175.345 47.162C174.847 46.194 174.597 45.1013 174.597 43.884C174.597 42.6667 174.847 41.5887 175.345 40.65C175.859 39.7113 176.548 38.9853 177.413 38.472C178.293 37.944 179.261 37.68 180.317 37.68ZM184.519 43.928C184.519 43.092 184.343 42.366 183.991 41.75C183.654 41.134 183.207 40.6647 182.649 40.342C182.092 40.0193 181.491 39.858 180.845 39.858C180.2 39.858 179.599 40.0193 179.041 40.342C178.484 40.65 178.029 41.112 177.677 41.728C177.34 42.3293 177.171 43.048 177.171 43.884C177.171 44.72 177.34 45.4533 177.677 46.084C178.029 46.7147 178.484 47.1987 179.041 47.536C179.613 47.8587 180.215 48.02 180.845 48.02C181.491 48.02 182.092 47.8587 182.649 47.536C183.207 47.2133 183.654 46.744 183.991 46.128C184.343 45.4973 184.519 44.764 184.519 43.928ZM189.507 43.884C189.507 42.6667 189.757 41.5887 190.255 40.65C190.769 39.7113 191.458 38.9853 192.323 38.472C193.203 37.944 194.171 37.68 195.227 37.68C196.181 37.68 197.009 37.8707 197.713 38.252C198.432 38.6187 199.004 39.0807 199.429 39.638V37.878H201.959V50H199.429V48.196C199.004 48.768 198.425 49.2447 197.691 49.626C196.958 50.0073 196.122 50.198 195.183 50.198C194.142 50.198 193.189 49.934 192.323 49.406C191.458 48.8633 190.769 48.1153 190.255 47.162C189.757 46.194 189.507 45.1013 189.507 43.884ZM199.429 43.928C199.429 43.092 199.253 42.366 198.901 41.75C198.564 41.134 198.117 40.6647 197.559 40.342C197.002 40.0193 196.401 39.858 195.755 39.858C195.11 39.858 194.509 40.0193 193.951 40.342C193.394 40.65 192.939 41.112 192.587 41.728C192.25 42.3293 192.081 43.048 192.081 43.884C192.081 44.72 192.25 45.4533 192.587 46.084C192.939 46.7147 193.394 47.1987 193.951 47.536C194.523 47.8587 195.125 48.02 195.755 48.02C196.401 48.02 197.002 47.8587 197.559 47.536C198.117 47.2133 198.564 46.744 198.901 46.128C199.253 45.4973 199.429 44.764 199.429 43.928ZM204.418 43.928C204.418 42.6813 204.667 41.5887 205.166 40.65C205.679 39.6967 206.383 38.9633 207.278 38.45C208.172 37.9367 209.199 37.68 210.358 37.68C211.824 37.68 213.034 38.032 213.988 38.736C214.956 39.4253 215.608 40.4153 215.946 41.706H213.24C213.02 41.1047 212.668 40.6353 212.184 40.298C211.7 39.9607 211.091 39.792 210.358 39.792C209.331 39.792 208.51 40.1587 207.894 40.892C207.292 41.6107 206.992 42.6227 206.992 43.928C206.992 45.2333 207.292 46.2527 207.894 46.986C208.51 47.7193 209.331 48.086 210.358 48.086C211.81 48.086 212.77 47.448 213.24 46.172H215.946C215.594 47.404 214.934 48.3867 213.966 49.12C212.998 49.8387 211.795 50.198 210.358 50.198C209.199 50.198 208.172 49.9413 207.278 49.428C206.383 48.9 205.679 48.1667 205.166 47.228C204.667 46.2747 204.418 45.1747 204.418 43.928ZM229.357 37.878L221.921 55.698H219.325L221.789 49.802L217.015 37.878H219.809L223.219 47.118L226.761 37.878H229.357Z" fill="#FEF2C7"/>
<path d="M2.06323 23.7705L242.916 15.3597" stroke="#FFFBEB" stroke-width="3" stroke-linecap="round"/>
<g clip-path="url(#clip0_76_456)">
<path d="M42.5912 0.000144958C42.5912 0.693893 42.6462 1.27514 42.5662 1.83639C42.5325 2.07514 42.2537 2.33139 42.025 2.47514C40.9162 3.17889 39.7125 3.74139 38.6787 4.54889C35.3337 7.16389 33.3512 10.6064 33.2425 15.0789C33.2125 16.3476 33.68 16.6664 34.745 16.1701C37.8237 14.7426 41.135 15.5801 42.9012 18.2326C44.8275 21.1276 44.5562 24.9826 42.2475 27.5101C39.3 30.7376 34.4475 30.8351 31.1012 27.7501C29.0975 25.9026 28.145 23.5176 27.9075 20.8039C27.1112 11.7151 31.67 4.22264 39.9687 0.931395C40.79 0.606396 41.6312 0.338894 42.5912 0.000144958Z" fill="#FE7011"/>
</g>
<g clip-path="url(#clip1_76_456)">
<path d="M23.5912 0.000144958C23.5912 0.693893 23.6462 1.27514 23.5662 1.83639C23.5325 2.07514 23.2537 2.33139 23.025 2.47514C21.9162 3.17889 20.7125 3.74139 19.6787 4.54889C16.3337 7.16389 14.3512 10.6064 14.2425 15.0789C14.2125 16.3476 14.68 16.6664 15.745 16.1701C18.8237 14.7426 22.135 15.5801 23.9012 18.2326C25.8275 21.1276 25.5562 24.9826 23.2475 27.5101C20.3 30.7376 15.4475 30.8351 12.1012 27.7501C10.0975 25.9026 9.14498 23.5176 8.90748 20.8039C8.11123 11.7151 12.67 4.22264 20.9687 0.931395C21.79 0.606396 22.6312 0.338894 23.5912 0.000144958Z" fill="#FE7011"/>
</g>
<path d="M5 62L245.98 58.8704" stroke="#FFFBEB" stroke-width="3" stroke-linecap="round"/>
<defs>
<clipPath id="clip0_76_456">
<rect width="30" height="30" fill="white" transform="matrix(-1 0 0 -1 51 30)"/>
</clipPath>
<clipPath id="clip1_76_456">
<rect width="30" height="30" fill="white" transform="matrix(-1 0 0 -1 32 30)"/>
</clipPath>
</defs>
</svg>
