<svg width="352" height="31" viewBox="0 0 352 31" fill="none" xmlns="http://www.w3.org/2000/svg">
<path d="M0.622 30L13.726 0.599998H20.446L33.592 30H26.452L15.7 4.044H18.388L7.594 30H0.622ZM7.174 23.7L8.98 18.534H24.1L25.948 23.7H7.174ZM50.3021 30.504C48.0341 30.504 45.9201 30.14 43.9601 29.412C42.0281 28.656 40.3481 27.592 38.9201 26.22C37.4921 24.848 36.3721 23.238 35.5601 21.39C34.7761 19.542 34.3841 17.512 34.3841 15.3C34.3841 13.088 34.7761 11.058 35.5601 9.21C36.3721 7.362 37.4921 5.752 38.9201 4.38C40.3761 3.008 42.0701 1.958 44.0021 1.23C45.9341 0.473999 48.0481 0.0959995 50.3441 0.0959995C52.8921 0.0959995 55.1881 0.544 57.2321 1.44C59.3041 2.308 61.0401 3.596 62.4401 5.304L58.0721 9.336C57.0641 8.188 55.9441 7.334 54.7121 6.774C53.4801 6.186 52.1361 5.892 50.6801 5.892C49.3081 5.892 48.0481 6.116 46.9001 6.564C45.7521 7.012 44.7581 7.656 43.9181 8.496C43.0781 9.336 42.4201 10.33 41.9441 11.478C41.4961 12.626 41.2721 13.9 41.2721 15.3C41.2721 16.7 41.4961 17.974 41.9441 19.122C42.4201 20.27 43.0781 21.264 43.9181 22.104C44.7581 22.944 45.7521 23.588 46.9001 24.036C48.0481 24.484 49.3081 24.708 50.6801 24.708C52.1361 24.708 53.4801 24.428 54.7121 23.868C55.9441 23.28 57.0641 22.398 58.0721 21.222L62.4401 25.254C61.0401 26.962 59.3041 28.264 57.2321 29.16C55.1881 30.056 52.8781 30.504 50.3021 30.504ZM87.1948 0.599998H93.9988V30H87.1948V0.599998ZM73.8388 30H67.0348V0.599998H73.8388V30ZM87.6988 17.946H73.3348V12.192H87.6988V17.946ZM100.955 30V0.599998H107.759V30H100.955ZM120.994 12.444H135.148V17.736H120.994V12.444ZM121.498 24.54H137.5V30H114.736V0.599998H136.954V6.06H121.498V24.54ZM151.324 30L138.64 0.599998H145.99L157.078 26.64H152.752L164.008 0.599998H170.77L158.044 30H151.324ZM179.482 12.444H193.636V17.736H179.482V12.444ZM179.986 24.54H195.988V30H173.224V0.599998H195.442V6.06H179.986V24.54ZM201.402 30V0.599998H207.03L219.546 21.348H216.564L228.87 0.599998H234.456L234.54 30H228.156L228.114 10.386H229.29L219.462 26.892H216.396L206.358 10.386H207.786V30H201.402ZM247.773 12.444H261.927V17.736H247.773V12.444ZM248.277 24.54H264.279V30H241.515V0.599998H263.733V6.06H248.277V24.54ZM269.693 30V0.599998H275.321L292.667 21.768H289.937V0.599998H296.657V30H291.071L273.683 8.832H276.413V30H269.693ZM309.703 30V6.144H300.295V0.599998H325.915V6.144H316.507V30H309.703ZM339.031 30.504C336.679 30.504 334.425 30.196 332.269 29.58C330.113 28.936 328.377 28.11 327.061 27.102L329.371 21.978C330.631 22.874 332.115 23.616 333.823 24.204C335.559 24.764 337.309 25.044 339.073 25.044C340.417 25.044 341.495 24.918 342.307 24.666C343.147 24.386 343.763 24.008 344.155 23.532C344.547 23.056 344.743 22.51 344.743 21.894C344.743 21.11 344.435 20.494 343.819 20.046C343.203 19.57 342.391 19.192 341.383 18.912C340.375 18.604 339.255 18.324 338.023 18.072C336.819 17.792 335.601 17.456 334.369 17.064C333.165 16.672 332.059 16.168 331.051 15.552C330.043 14.936 329.217 14.124 328.573 13.116C327.957 12.108 327.649 10.82 327.649 9.252C327.649 7.572 328.097 6.046 328.993 4.674C329.917 3.274 331.289 2.168 333.109 1.356C334.957 0.515999 337.267 0.0959995 340.039 0.0959995C341.887 0.0959995 343.707 0.319999 345.499 0.767998C347.291 1.188 348.873 1.832 350.245 2.7L348.145 7.866C346.773 7.082 345.401 6.508 344.029 6.144C342.657 5.752 341.313 5.556 339.997 5.556C338.681 5.556 337.603 5.71 336.763 6.018C335.923 6.326 335.321 6.732 334.957 7.236C334.593 7.712 334.411 8.272 334.411 8.916C334.411 9.672 334.719 10.288 335.335 10.764C335.951 11.212 336.763 11.576 337.771 11.856C338.779 12.136 339.885 12.416 341.089 12.696C342.321 12.976 343.539 13.298 344.743 13.662C345.975 14.026 347.095 14.516 348.103 15.132C349.111 15.748 349.923 16.56 350.539 17.568C351.183 18.576 351.505 19.85 351.505 21.39C351.505 23.042 351.043 24.554 350.119 25.926C349.195 27.298 347.809 28.404 345.961 29.244C344.141 30.084 341.831 30.504 339.031 30.504Z" fill="url(#paint0_linear_157_112)"/>
<defs>
<linearGradient id="paint0_linear_157_112" x1="185.5" y1="-11" x2="185.5" y2="44" gradientUnits="userSpaceOnUse">
<stop stop-color="#98430A"/>
<stop offset="0.65" stop-color="#FE7011"/>
<stop offset="0.98" stop-color="#FDD24C"/>
</linearGradient>
</defs>
</svg>
