<svg width="457" height="174" viewBox="0 0 457 174" fill="none" xmlns="http://www.w3.org/2000/svg">
<path d="M175.977 3.344V23H171.189V3.344H175.977ZM188.967 7.208C190.796 7.208 192.252 7.80533 193.335 9C194.436 10.176 194.987 11.8 194.987 13.872V23H190.227V14.516C190.227 13.4707 189.956 12.6587 189.415 12.08C188.874 11.5013 188.146 11.212 187.231 11.212C186.316 11.212 185.588 11.5013 185.047 12.08C184.506 12.6587 184.235 13.4707 184.235 14.516V23H179.447V7.376H184.235V9.448C184.72 8.75733 185.374 8.216 186.195 7.824C187.016 7.41333 187.94 7.208 188.967 7.208ZM205.342 18.52L208.73 7.376H213.826L208.282 23H202.374L196.83 7.376H201.954L205.342 18.52ZM218.249 5.752C217.409 5.752 216.719 5.50933 216.177 5.024C215.655 4.52 215.393 3.904 215.393 3.176C215.393 2.42933 215.655 1.81333 216.177 1.328C216.719 0.823998 217.409 0.571998 218.249 0.571998C219.071 0.571998 219.743 0.823998 220.265 1.328C220.807 1.81333 221.077 2.42933 221.077 3.176C221.077 3.904 220.807 4.52 220.265 5.024C219.743 5.50933 219.071 5.752 218.249 5.752ZM220.629 7.376V23H215.841V7.376H220.629ZM223.147 15.188C223.147 13.564 223.474 12.1453 224.127 10.932C224.799 9.71867 225.723 8.78533 226.899 8.132C228.094 7.47867 229.457 7.152 230.987 7.152C232.947 7.152 234.581 7.66533 235.887 8.692C237.213 9.71867 238.081 11.1653 238.491 13.032H233.395C232.966 11.8373 232.135 11.24 230.903 11.24C230.026 11.24 229.326 11.5853 228.803 12.276C228.281 12.948 228.019 13.9187 228.019 15.188C228.019 16.4573 228.281 17.4373 228.803 18.128C229.326 18.8 230.026 19.136 230.903 19.136C232.135 19.136 232.966 18.5387 233.395 17.344H238.491C238.081 19.1733 237.213 20.6107 235.887 21.656C234.562 22.7013 232.929 23.224 230.987 23.224C229.457 23.224 228.094 22.8973 226.899 22.244C225.723 21.5907 224.799 20.6573 224.127 19.444C223.474 18.2307 223.147 16.812 223.147 15.188ZM249.76 18.94V23H247.324C245.588 23 244.235 22.58 243.264 21.74C242.294 20.8813 241.808 19.4907 241.808 17.568V11.352H239.904V7.376H241.808V3.568H246.596V7.376H249.732V11.352H246.596V17.624C246.596 18.0907 246.708 18.4267 246.932 18.632C247.156 18.8373 247.53 18.94 248.052 18.94H249.76ZM251.475 15.16C251.475 13.5547 251.774 12.1453 252.371 10.932C252.987 9.71867 253.818 8.78533 254.863 8.132C255.909 7.47867 257.075 7.152 258.363 7.152C259.465 7.152 260.426 7.376 261.247 7.824C262.087 8.272 262.731 8.86 263.179 9.588V7.376H267.967V23H263.179V20.788C262.713 21.516 262.059 22.104 261.219 22.552C260.398 23 259.437 23.224 258.335 23.224C257.066 23.224 255.909 22.8973 254.863 22.244C253.818 21.572 252.987 20.6293 252.371 19.416C251.774 18.184 251.475 16.7653 251.475 15.16ZM263.179 15.188C263.179 13.9933 262.843 13.0507 262.171 12.36C261.518 11.6693 260.715 11.324 259.763 11.324C258.811 11.324 257.999 11.6693 257.327 12.36C256.674 13.032 256.347 13.9653 256.347 15.16C256.347 16.3547 256.674 17.3067 257.327 18.016C257.999 18.7067 258.811 19.052 259.763 19.052C260.715 19.052 261.518 18.7067 262.171 18.016C262.843 17.3253 263.179 16.3827 263.179 15.188Z" fill="black"/>
<path d="M12.1361 40.556V43.57H8.04411V56H4.28211V43.57H0.190109V40.556H12.1361ZM21.5702 43.592C22.9782 43.592 24.1075 44.0613 24.9582 45C25.8088 45.924 26.2342 47.2 26.2342 48.828V56H22.4942V49.334C22.4942 48.5127 22.2815 47.8747 21.8562 47.42C21.4308 46.9653 20.8588 46.738 20.1402 46.738C19.4215 46.738 18.8495 46.9653 18.4242 47.42C17.9988 47.8747 17.7862 48.5127 17.7862 49.334V56H14.0242V39.72H17.7862V45.374C18.1675 44.8313 18.6882 44.3987 19.3482 44.076C20.0082 43.7533 20.7488 43.592 21.5702 43.592ZM40.4204 49.664C40.4204 50.016 40.3984 50.3827 40.3544 50.764H31.8404C31.899 51.5267 32.141 52.1133 32.5664 52.524C33.0064 52.92 33.5417 53.118 34.1724 53.118C35.111 53.118 35.7637 52.722 36.1304 51.93H40.1344C39.929 52.7367 39.555 53.4627 39.0124 54.108C38.4844 54.7533 37.817 55.2593 37.0104 55.626C36.2037 55.9927 35.3017 56.176 34.3044 56.176C33.1017 56.176 32.031 55.9193 31.0924 55.406C30.1537 54.8927 29.4204 54.1593 28.8924 53.206C28.3644 52.2527 28.1004 51.138 28.1004 49.862C28.1004 48.586 28.357 47.4713 28.8704 46.518C29.3984 45.5647 30.1317 44.8313 31.0704 44.318C32.009 43.8047 33.087 43.548 34.3044 43.548C35.4924 43.548 36.5484 43.7973 37.4724 44.296C38.3964 44.7947 39.115 45.506 39.6284 46.43C40.1564 47.354 40.4204 48.432 40.4204 49.664ZM36.5704 48.674C36.5704 48.0287 36.3504 47.5153 35.9104 47.134C35.4704 46.7527 34.9204 46.562 34.2604 46.562C33.6297 46.562 33.0944 46.7453 32.6544 47.112C32.229 47.4787 31.965 47.9993 31.8624 48.674H36.5704ZM50.7411 51.292C50.9611 52.4507 51.6358 53.03 52.7651 53.03C53.5425 53.03 54.0925 52.6853 54.4151 51.996C54.7378 51.3067 54.8991 50.1847 54.8991 48.63C54.5765 49.0847 54.1365 49.4367 53.5791 49.686C53.0218 49.9353 52.3985 50.06 51.7091 50.06C50.7705 50.06 49.9345 49.8693 49.2011 49.488C48.4678 49.092 47.8885 48.5127 47.4631 47.75C47.0525 46.9727 46.8471 46.034 46.8471 44.934C46.8471 43.8487 47.0671 42.9027 47.5071 42.096C47.9618 41.2893 48.5998 40.666 49.4211 40.226C50.2571 39.786 51.2398 39.566 52.3691 39.566C54.5398 39.566 56.0578 40.2407 56.9231 41.59C57.7885 42.9393 58.2211 44.9267 58.2211 47.552C58.2211 49.4587 58.0451 51.0353 57.6931 52.282C57.3558 53.514 56.7765 54.4527 55.9551 55.098C55.1485 55.7433 54.0411 56.066 52.6331 56.066C51.5185 56.066 50.5651 55.846 49.7731 55.406C48.9958 54.966 48.3945 54.3867 47.9691 53.668C47.5585 52.9493 47.3238 52.1573 47.2651 51.292H50.7411ZM52.5671 47.09C53.1831 47.09 53.6745 46.9067 54.0411 46.54C54.4078 46.1587 54.5911 45.6453 54.5911 45C54.5911 44.296 54.4005 43.7533 54.0191 43.372C53.6378 42.9907 53.1245 42.8 52.4791 42.8C51.8338 42.8 51.3205 42.998 50.9391 43.394C50.5725 43.7753 50.3891 44.3033 50.3891 44.978C50.3891 45.6087 50.5725 46.122 50.9391 46.518C51.3205 46.8993 51.8631 47.09 52.5671 47.09ZM67.4443 52.81V56H65.5303C64.1663 56 63.1029 55.67 62.3403 55.01C61.5776 54.3353 61.1963 53.2427 61.1963 51.732V46.848H59.7003V43.724H61.1963V40.732H64.9583V43.724H67.4223V46.848H64.9583V51.776C64.9583 52.1427 65.0463 52.4067 65.2223 52.568C65.3983 52.7293 65.6916 52.81 66.1023 52.81H67.4443ZM77.0858 43.592C78.4938 43.592 79.6231 44.0613 80.4738 45C81.3244 45.924 81.7498 47.2 81.7498 48.828V56H78.0098V49.334C78.0098 48.5127 77.7971 47.8747 77.3718 47.42C76.9464 46.9653 76.3744 46.738 75.6558 46.738C74.9371 46.738 74.3651 46.9653 73.9398 47.42C73.5144 47.8747 73.3018 48.5127 73.3018 49.334V56H69.5398V39.72H73.3018V45.374C73.6831 44.8313 74.2038 44.3987 74.8638 44.076C75.5238 43.7533 76.2644 43.592 77.0858 43.592ZM94.8121 40.556C96.4401 40.556 97.8628 40.8787 99.0801 41.524C100.297 42.1693 101.236 43.0787 101.896 44.252C102.571 45.4107 102.908 46.7527 102.908 48.278C102.908 49.7887 102.571 51.1307 101.896 52.304C101.236 53.4773 100.29 54.3867 99.0581 55.032C97.8408 55.6773 96.4254 56 94.8121 56H89.0261V40.556H94.8121ZM94.5701 52.744C95.9928 52.744 97.1001 52.3553 97.8921 51.578C98.6841 50.8007 99.0801 49.7007 99.0801 48.278C99.0801 46.8553 98.6841 45.748 97.8921 44.956C97.1001 44.164 95.9928 43.768 94.5701 43.768H92.7881V52.744H94.5701ZM106.902 42.448C106.242 42.448 105.7 42.2573 105.274 41.876C104.864 41.48 104.658 40.996 104.658 40.424C104.658 39.8373 104.864 39.3533 105.274 38.972C105.7 38.576 106.242 38.378 106.902 38.378C107.548 38.378 108.076 38.576 108.486 38.972C108.912 39.3533 109.124 39.8373 109.124 40.424C109.124 40.996 108.912 41.48 108.486 41.876C108.076 42.2573 107.548 42.448 106.902 42.448ZM108.772 43.724V56H105.01V43.724H108.772ZM116.493 56.176C115.422 56.176 114.469 55.9927 113.633 55.626C112.797 55.2593 112.137 54.7607 111.653 54.13C111.169 53.4847 110.897 52.766 110.839 51.974H114.557C114.601 52.3993 114.799 52.744 115.151 53.008C115.503 53.272 115.935 53.404 116.449 53.404C116.918 53.404 117.277 53.316 117.527 53.14C117.791 52.9493 117.923 52.7073 117.923 52.414C117.923 52.062 117.739 51.8053 117.373 51.644C117.006 51.468 116.412 51.2773 115.591 51.072C114.711 50.8667 113.977 50.654 113.391 50.434C112.804 50.1993 112.298 49.84 111.873 49.356C111.447 48.8573 111.235 48.19 111.235 47.354C111.235 46.65 111.425 46.012 111.807 45.44C112.203 44.8533 112.775 44.3913 113.523 44.054C114.285 43.7167 115.187 43.548 116.229 43.548C117.769 43.548 118.979 43.9293 119.859 44.692C120.753 45.4547 121.267 46.4667 121.399 47.728H117.923C117.864 47.3027 117.673 46.9653 117.351 46.716C117.043 46.4667 116.632 46.342 116.119 46.342C115.679 46.342 115.341 46.43 115.107 46.606C114.872 46.7673 114.755 46.9947 114.755 47.288C114.755 47.64 114.938 47.904 115.305 48.08C115.686 48.256 116.273 48.432 117.065 48.608C117.974 48.8427 118.715 49.0773 119.287 49.312C119.859 49.532 120.357 49.8987 120.783 50.412C121.223 50.9107 121.45 51.5853 121.465 52.436C121.465 53.1547 121.259 53.8 120.849 54.372C120.453 54.9293 119.873 55.3693 119.111 55.692C118.363 56.0147 117.49 56.176 116.493 56.176ZM130.608 52.81V56H128.694C127.33 56 126.267 55.67 125.504 55.01C124.742 54.3353 124.36 53.2427 124.36 51.732V46.848H122.864V43.724H124.36V40.732H128.122V43.724H130.586V46.848H128.122V51.776C128.122 52.1427 128.21 52.4067 128.386 52.568C128.562 52.7293 128.856 52.81 129.266 52.81H130.608ZM136.466 45.77C136.906 45.0953 137.456 44.5673 138.116 44.186C138.776 43.79 139.509 43.592 140.316 43.592V47.574H139.282C138.343 47.574 137.639 47.7793 137.17 48.19C136.701 48.586 136.466 49.29 136.466 50.302V56H132.704V43.724H136.466V45.77ZM144.006 42.448C143.346 42.448 142.803 42.2573 142.378 41.876C141.967 41.48 141.762 40.996 141.762 40.424C141.762 39.8373 141.967 39.3533 142.378 38.972C142.803 38.576 143.346 38.378 144.006 38.378C144.651 38.378 145.179 38.576 145.59 38.972C146.015 39.3533 146.228 39.8373 146.228 40.424C146.228 40.996 146.015 41.48 145.59 41.876C145.179 42.2573 144.651 42.448 144.006 42.448ZM145.876 43.724V56H142.114V43.724H145.876ZM147.854 49.862C147.854 48.586 148.111 47.4713 148.624 46.518C149.152 45.5647 149.878 44.8313 150.802 44.318C151.741 43.8047 152.812 43.548 154.014 43.548C155.554 43.548 156.838 43.9513 157.864 44.758C158.906 45.5647 159.588 46.7013 159.91 48.168H155.906C155.569 47.2293 154.916 46.76 153.948 46.76C153.259 46.76 152.709 47.0313 152.298 47.574C151.888 48.102 151.682 48.8647 151.682 49.862C151.682 50.8593 151.888 51.6293 152.298 52.172C152.709 52.7 153.259 52.964 153.948 52.964C154.916 52.964 155.569 52.4947 155.906 51.556H159.91C159.588 52.9933 158.906 54.1227 157.864 54.944C156.823 55.7653 155.54 56.176 154.014 56.176C152.812 56.176 151.741 55.9193 150.802 55.406C149.878 54.8927 149.152 54.1593 148.624 53.206C148.111 52.2527 147.854 51.138 147.854 49.862ZM168.765 52.81V56H166.851C165.487 56 164.423 55.67 163.661 55.01C162.898 54.3353 162.517 53.2427 162.517 51.732V46.848H161.021V43.724H162.517V40.732H166.279V43.724H168.743V46.848H166.279V51.776C166.279 52.1427 166.367 52.4067 166.543 52.568C166.719 52.7293 167.012 52.81 167.423 52.81H168.765ZM185.136 53.272H179.372L178.448 56H174.51L180.098 40.556H184.454L190.042 56H186.06L185.136 53.272ZM184.168 50.368L182.254 44.714L180.362 50.368H184.168ZM196.737 56.176C195.666 56.176 194.713 55.9927 193.877 55.626C193.041 55.2593 192.381 54.7607 191.897 54.13C191.413 53.4847 191.142 52.766 191.083 51.974H194.801C194.845 52.3993 195.043 52.744 195.395 53.008C195.747 53.272 196.18 53.404 196.693 53.404C197.162 53.404 197.522 53.316 197.771 53.14C198.035 52.9493 198.167 52.7073 198.167 52.414C198.167 52.062 197.984 51.8053 197.617 51.644C197.25 51.468 196.656 51.2773 195.835 51.072C194.955 50.8667 194.222 50.654 193.635 50.434C193.048 50.1993 192.542 49.84 192.117 49.356C191.692 48.8573 191.479 48.19 191.479 47.354C191.479 46.65 191.67 46.012 192.051 45.44C192.447 44.8533 193.019 44.3913 193.767 44.054C194.53 43.7167 195.432 43.548 196.473 43.548C198.013 43.548 199.223 43.9293 200.103 44.692C200.998 45.4547 201.511 46.4667 201.643 47.728H198.167C198.108 47.3027 197.918 46.9653 197.595 46.716C197.287 46.4667 196.876 46.342 196.363 46.342C195.923 46.342 195.586 46.43 195.351 46.606C195.116 46.7673 194.999 46.9947 194.999 47.288C194.999 47.64 195.182 47.904 195.549 48.08C195.93 48.256 196.517 48.432 197.309 48.608C198.218 48.8427 198.959 49.0773 199.531 49.312C200.103 49.532 200.602 49.8987 201.027 50.412C201.467 50.9107 201.694 51.5853 201.709 52.436C201.709 53.1547 201.504 53.8 201.093 54.372C200.697 54.9293 200.118 55.3693 199.355 55.692C198.607 56.0147 197.734 56.176 196.737 56.176ZM209.004 56.176C207.934 56.176 206.98 55.9927 206.144 55.626C205.308 55.2593 204.648 54.7607 204.164 54.13C203.68 53.4847 203.409 52.766 203.35 51.974H207.068C207.112 52.3993 207.31 52.744 207.662 53.008C208.014 53.272 208.447 53.404 208.96 53.404C209.43 53.404 209.789 53.316 210.038 53.14C210.302 52.9493 210.434 52.7073 210.434 52.414C210.434 52.062 210.251 51.8053 209.884 51.644C209.518 51.468 208.924 51.2773 208.102 51.072C207.222 50.8667 206.489 50.654 205.902 50.434C205.316 50.1993 204.81 49.84 204.384 49.356C203.959 48.8573 203.746 48.19 203.746 47.354C203.746 46.65 203.937 46.012 204.318 45.44C204.714 44.8533 205.286 44.3913 206.034 44.054C206.797 43.7167 207.699 43.548 208.74 43.548C210.28 43.548 211.49 43.9293 212.37 44.692C213.265 45.4547 213.778 46.4667 213.91 47.728H210.434C210.376 47.3027 210.185 46.9653 209.862 46.716C209.554 46.4667 209.144 46.342 208.63 46.342C208.19 46.342 207.853 46.43 207.618 46.606C207.384 46.7673 207.266 46.9947 207.266 47.288C207.266 47.64 207.45 47.904 207.816 48.08C208.198 48.256 208.784 48.432 209.576 48.608C210.486 48.8427 211.226 49.0773 211.798 49.312C212.37 49.532 212.869 49.8987 213.294 50.412C213.734 50.9107 213.962 51.5853 213.976 52.436C213.976 53.1547 213.771 53.8 213.36 54.372C212.964 54.9293 212.385 55.3693 211.622 55.692C210.874 56.0147 210.002 56.176 209.004 56.176ZM227.85 49.664C227.85 50.016 227.828 50.3827 227.784 50.764H219.27C219.329 51.5267 219.571 52.1133 219.996 52.524C220.436 52.92 220.971 53.118 221.602 53.118C222.541 53.118 223.193 52.722 223.56 51.93H227.564C227.359 52.7367 226.985 53.4627 226.442 54.108C225.914 54.7533 225.247 55.2593 224.44 55.626C223.633 55.9927 222.731 56.176 221.734 56.176C220.531 56.176 219.461 55.9193 218.522 55.406C217.583 54.8927 216.85 54.1593 216.322 53.206C215.794 52.2527 215.53 51.138 215.53 49.862C215.53 48.586 215.787 47.4713 216.3 46.518C216.828 45.5647 217.561 44.8313 218.5 44.318C219.439 43.8047 220.517 43.548 221.734 43.548C222.922 43.548 223.978 43.7973 224.902 44.296C225.826 44.7947 226.545 45.506 227.058 46.43C227.586 47.354 227.85 48.432 227.85 49.664ZM224 48.674C224 48.0287 223.78 47.5153 223.34 47.134C222.9 46.7527 222.35 46.562 221.69 46.562C221.059 46.562 220.524 46.7453 220.084 47.112C219.659 47.4787 219.395 47.9993 219.292 48.674H224ZM245.499 43.592C247.024 43.592 248.234 44.054 249.129 44.978C250.038 45.902 250.493 47.1853 250.493 48.828V56H246.753V49.334C246.753 48.542 246.54 47.9333 246.115 47.508C245.704 47.068 245.132 46.848 244.399 46.848C243.665 46.848 243.086 47.068 242.661 47.508C242.25 47.9333 242.045 48.542 242.045 49.334V56H238.305V49.334C238.305 48.542 238.092 47.9333 237.667 47.508C237.256 47.068 236.684 46.848 235.951 46.848C235.217 46.848 234.638 47.068 234.213 47.508C233.802 47.9333 233.597 48.542 233.597 49.334V56H229.835V43.724H233.597V45.264C233.978 44.7507 234.477 44.3473 235.093 44.054C235.709 43.746 236.405 43.592 237.183 43.592C238.107 43.592 238.928 43.79 239.647 44.186C240.38 44.582 240.952 45.1467 241.363 45.88C241.788 45.2053 242.367 44.6553 243.101 44.23C243.834 43.8047 244.633 43.592 245.499 43.592ZM256.886 45.462C257.238 44.89 257.744 44.428 258.404 44.076C259.064 43.724 259.819 43.548 260.67 43.548C261.682 43.548 262.598 43.8047 263.42 44.318C264.241 44.8313 264.886 45.5647 265.356 46.518C265.84 47.4713 266.082 48.5787 266.082 49.84C266.082 51.1013 265.84 52.216 265.356 53.184C264.886 54.1373 264.241 54.878 263.42 55.406C262.598 55.9193 261.682 56.176 260.67 56.176C259.804 56.176 259.049 56.0073 258.404 55.67C257.758 55.318 257.252 54.856 256.886 54.284V56H253.124V39.72H256.886V45.462ZM262.254 49.84C262.254 48.9013 261.99 48.168 261.462 47.64C260.948 47.0973 260.31 46.826 259.548 46.826C258.8 46.826 258.162 47.0973 257.634 47.64C257.12 48.1827 256.864 48.9233 256.864 49.862C256.864 50.8007 257.12 51.5413 257.634 52.084C258.162 52.6267 258.8 52.898 259.548 52.898C260.296 52.898 260.934 52.6267 261.462 52.084C261.99 51.5267 262.254 50.7787 262.254 49.84ZM271.817 39.72V56H268.055V39.72H271.817ZM287.084 43.724L279.384 61.83H275.336L278.152 55.582L273.158 43.724H277.36L280.198 51.402L283.014 43.724H287.084ZM304.92 56L303.49 54.614C302.068 55.6993 300.366 56.242 298.386 56.242C297.198 56.242 296.164 56.0513 295.284 55.67C294.404 55.274 293.722 54.724 293.238 54.02C292.769 53.3013 292.534 52.4653 292.534 51.512C292.534 50.544 292.791 49.6713 293.304 48.894C293.832 48.102 294.617 47.4567 295.658 46.958C295.277 46.4887 295.006 46.0413 294.844 45.616C294.683 45.176 294.602 44.6993 294.602 44.186C294.602 43.4527 294.793 42.7853 295.174 42.184C295.556 41.5827 296.106 41.1133 296.824 40.776C297.558 40.424 298.423 40.248 299.42 40.248C300.432 40.248 301.29 40.4313 301.994 40.798C302.698 41.1647 303.226 41.656 303.578 42.272C303.93 42.888 304.092 43.5627 304.062 44.296H300.52C300.535 43.9 300.432 43.5993 300.212 43.394C300.007 43.174 299.728 43.064 299.376 43.064C299.024 43.064 298.731 43.1667 298.496 43.372C298.262 43.5773 298.144 43.8413 298.144 44.164C298.144 44.472 298.24 44.7947 298.43 45.132C298.636 45.4693 298.951 45.858 299.376 46.298L303.138 49.972C303.168 49.8987 303.204 49.8107 303.248 49.708C303.307 49.6053 303.366 49.488 303.424 49.356L304.238 47.97H308L306.944 49.884C306.548 50.7493 306.094 51.5707 305.58 52.348L309.298 56H304.92ZM298.562 53.206C299.545 53.206 300.418 52.9273 301.18 52.37L297.748 49.048C296.692 49.5907 296.164 50.324 296.164 51.248C296.164 51.8053 296.377 52.2747 296.802 52.656C297.242 53.0227 297.829 53.206 298.562 53.206ZM324.935 53.272H319.171L318.247 56H314.309L319.897 40.556H324.253L329.841 56H325.859L324.935 53.272ZM323.967 50.368L322.053 44.714L320.161 50.368H323.967ZM341.156 53.272H335.392L334.468 56H330.53L336.118 40.556H340.474L346.062 56H342.08L341.156 53.272ZM340.188 50.368L338.274 44.714L336.382 50.368H340.188ZM355.638 56L352.426 50.17H351.524V56H347.762V40.556H354.076C355.294 40.556 356.328 40.7687 357.178 41.194C358.044 41.6193 358.689 42.206 359.114 42.954C359.54 43.6873 359.752 44.5087 359.752 45.418C359.752 46.4447 359.459 47.3613 358.872 48.168C358.3 48.9747 357.45 49.5467 356.32 49.884L359.884 56H355.638ZM351.524 47.508H353.856C354.546 47.508 355.059 47.3393 355.396 47.002C355.748 46.6647 355.924 46.188 355.924 45.572C355.924 44.9853 355.748 44.5233 355.396 44.186C355.059 43.8487 354.546 43.68 353.856 43.68H351.524V47.508ZM371.728 53.272H365.964L365.04 56H361.102L366.69 40.556H371.046L376.634 56H372.652L371.728 53.272ZM370.76 50.368L368.846 44.714L366.954 50.368H370.76ZM396.813 56H393.051L386.759 46.474V56H382.997V40.556H386.759L393.051 50.126V40.556H396.813V56ZM401.432 42.448C400.772 42.448 400.229 42.2573 399.804 41.876C399.393 41.48 399.188 40.996 399.188 40.424C399.188 39.8373 399.393 39.3533 399.804 38.972C400.229 38.576 400.772 38.378 401.432 38.378C402.077 38.378 402.605 38.576 403.016 38.972C403.441 39.3533 403.654 39.8373 403.654 40.424C403.654 40.996 403.441 41.48 403.016 41.876C402.605 42.2573 402.077 42.448 401.432 42.448ZM403.302 43.724V56H399.54V43.724H403.302ZM410.692 43.548C411.557 43.548 412.313 43.724 412.958 44.076C413.618 44.428 414.124 44.89 414.476 45.462V43.724H418.238V55.978C418.238 57.1073 418.011 58.1267 417.556 59.036C417.116 59.96 416.434 60.6933 415.51 61.236C414.601 61.7787 413.464 62.05 412.1 62.05C410.281 62.05 408.807 61.6173 407.678 60.752C406.549 59.9013 405.903 58.7427 405.742 57.276H409.46C409.577 57.7453 409.856 58.112 410.296 58.376C410.736 58.6547 411.279 58.794 411.924 58.794C412.701 58.794 413.317 58.5667 413.772 58.112C414.241 57.672 414.476 56.9607 414.476 55.978V54.24C414.109 54.812 413.603 55.2813 412.958 55.648C412.313 56 411.557 56.176 410.692 56.176C409.68 56.176 408.763 55.9193 407.942 55.406C407.121 54.878 406.468 54.1373 405.984 53.184C405.515 52.216 405.28 51.1013 405.28 49.84C405.28 48.5787 405.515 47.4713 405.984 46.518C406.468 45.5647 407.121 44.8313 407.942 44.318C408.763 43.8047 409.68 43.548 410.692 43.548ZM414.476 49.862C414.476 48.9233 414.212 48.1827 413.684 47.64C413.171 47.0973 412.54 46.826 411.792 46.826C411.044 46.826 410.406 47.0973 409.878 47.64C409.365 48.168 409.108 48.9013 409.108 49.84C409.108 50.7787 409.365 51.5267 409.878 52.084C410.406 52.6267 411.044 52.898 411.792 52.898C412.54 52.898 413.171 52.6267 413.684 52.084C414.212 51.5413 414.476 50.8007 414.476 49.862ZM420.212 49.84C420.212 48.5787 420.446 47.4713 420.916 46.518C421.4 45.5647 422.052 44.8313 422.874 44.318C423.695 43.8047 424.612 43.548 425.624 43.548C426.489 43.548 427.244 43.724 427.89 44.076C428.55 44.428 429.056 44.89 429.408 45.462V43.724H433.17V56H429.408V54.262C429.041 54.834 428.528 55.296 427.868 55.648C427.222 56 426.467 56.176 425.602 56.176C424.604 56.176 423.695 55.9193 422.874 55.406C422.052 54.878 421.4 54.1373 420.916 53.184C420.446 52.216 420.212 51.1013 420.212 49.84ZM429.408 49.862C429.408 48.9233 429.144 48.1827 428.616 47.64C428.102 47.0973 427.472 46.826 426.724 46.826C425.976 46.826 425.338 47.0973 424.81 47.64C424.296 48.168 424.04 48.9013 424.04 49.84C424.04 50.7787 424.296 51.5267 424.81 52.084C425.338 52.6267 425.976 52.898 426.724 52.898C427.472 52.898 428.102 52.6267 428.616 52.084C429.144 51.5413 429.408 50.8007 429.408 49.862ZM451.555 43.592C453.081 43.592 454.291 44.054 455.185 44.978C456.095 45.902 456.549 47.1853 456.549 48.828V56H452.809V49.334C452.809 48.542 452.597 47.9333 452.171 47.508C451.761 47.068 451.189 46.848 450.455 46.848C449.722 46.848 449.143 47.068 448.717 47.508C448.307 47.9333 448.101 48.542 448.101 49.334V56H444.361V49.334C444.361 48.542 444.149 47.9333 443.723 47.508C443.313 47.068 442.741 46.848 442.007 46.848C441.274 46.848 440.695 47.068 440.269 47.508C439.859 47.9333 439.653 48.542 439.653 49.334V56H435.891V43.724H439.653V45.264C440.035 44.7507 440.533 44.3473 441.149 44.054C441.765 43.746 442.462 43.592 443.239 43.592C444.163 43.592 444.985 43.79 445.703 44.186C446.437 44.582 447.009 45.1467 447.419 45.88C447.845 45.2053 448.424 44.6553 449.157 44.23C449.891 43.8047 450.69 43.592 451.555 43.592ZM164.754 84.756L159.232 98H155.382L160.97 85.174H154.128V81.962H164.754V84.756ZM173.491 94.81V98H171.577C170.213 98 169.15 97.67 168.387 97.01C167.624 96.3353 167.243 95.2427 167.243 93.732V88.848H165.747V85.724H167.243V82.732H171.005V85.724H173.469V88.848H171.005V93.776C171.005 94.1427 171.093 94.4067 171.269 94.568C171.445 94.7293 171.738 94.81 172.149 94.81H173.491ZM183.133 85.592C184.541 85.592 185.67 86.0613 186.521 87C187.371 87.924 187.797 89.2 187.797 90.828V98H184.057V91.334C184.057 90.5127 183.844 89.8747 183.419 89.42C182.993 88.9653 182.421 88.738 181.703 88.738C180.984 88.738 180.412 88.9653 179.987 89.42C179.561 89.8747 179.349 90.5127 179.349 91.334V98H175.587V81.72H179.349V87.374C179.73 86.8313 180.251 86.3987 180.911 86.076C181.571 85.7533 182.311 85.592 183.133 85.592ZM204.753 82.556V93.072C204.753 94.7 204.291 95.954 203.367 96.834C202.458 97.714 201.226 98.154 199.671 98.154C198.043 98.154 196.738 97.692 195.755 96.768C194.772 95.844 194.281 94.5313 194.281 92.83H198.021C198.021 93.4753 198.153 93.9667 198.417 94.304C198.681 94.6267 199.062 94.788 199.561 94.788C200.016 94.788 200.368 94.6413 200.617 94.348C200.866 94.0547 200.991 93.6293 200.991 93.072V82.556H204.753ZM219.914 85.724V98H216.152V96.328C215.77 96.8707 215.25 97.3107 214.59 97.648C213.944 97.9707 213.226 98.132 212.434 98.132C211.495 98.132 210.666 97.9267 209.948 97.516C209.229 97.0907 208.672 96.482 208.276 95.69C207.88 94.898 207.682 93.9667 207.682 92.896V85.724H211.422V92.39C211.422 93.2113 211.634 93.8493 212.06 94.304C212.485 94.7587 213.057 94.986 213.776 94.986C214.509 94.986 215.088 94.7587 215.514 94.304C215.939 93.8493 216.152 93.2113 216.152 92.39V85.724H219.914ZM226.378 81.72V98H222.616V81.72H226.378ZM241.644 85.724L233.944 103.83H229.896L232.712 97.582L227.718 85.724H231.92L234.758 93.402L237.574 85.724H241.644ZM247.161 94.986C247.659 94.59 247.887 94.4067 247.843 94.436C249.28 93.248 250.409 92.2727 251.231 91.51C252.067 90.7473 252.771 89.948 253.343 89.112C253.915 88.276 254.201 87.462 254.201 86.67C254.201 86.0687 254.061 85.5993 253.783 85.262C253.504 84.9247 253.086 84.756 252.529 84.756C251.971 84.756 251.531 84.9687 251.209 85.394C250.901 85.8047 250.747 86.3913 250.747 87.154H247.117C247.146 85.9073 247.41 84.866 247.909 84.03C248.422 83.194 249.089 82.578 249.911 82.182C250.747 81.786 251.671 81.588 252.683 81.588C254.428 81.588 255.741 82.0353 256.621 82.93C257.515 83.8247 257.963 84.9907 257.963 86.428C257.963 87.9973 257.427 89.4567 256.357 90.806C255.286 92.1407 253.922 93.446 252.265 94.722H258.205V97.78H247.161V94.986ZM259.861 89.75C259.861 87.2273 260.345 85.24 261.313 83.788C262.296 82.336 263.872 81.61 266.043 81.61C268.214 81.61 269.783 82.336 270.751 83.788C271.734 85.24 272.225 87.2273 272.225 89.75C272.225 92.302 271.734 94.304 270.751 95.756C269.783 97.208 268.214 97.934 266.043 97.934C263.872 97.934 262.296 97.208 261.313 95.756C260.345 94.304 259.861 92.302 259.861 89.75ZM268.529 89.75C268.529 88.2687 268.368 87.132 268.045 86.34C267.722 85.5333 267.055 85.13 266.043 85.13C265.031 85.13 264.364 85.5333 264.041 86.34C263.718 87.132 263.557 88.2687 263.557 89.75C263.557 90.7473 263.616 91.576 263.733 92.236C263.85 92.8813 264.085 93.4093 264.437 93.82C264.804 94.216 265.339 94.414 266.043 94.414C266.747 94.414 267.275 94.216 267.627 93.82C267.994 93.4093 268.236 92.8813 268.353 92.236C268.47 91.576 268.529 90.7473 268.529 89.75ZM274.081 94.986C274.579 94.59 274.807 94.4067 274.763 94.436C276.2 93.248 277.329 92.2727 278.151 91.51C278.987 90.7473 279.691 89.948 280.263 89.112C280.835 88.276 281.121 87.462 281.121 86.67C281.121 86.0687 280.981 85.5993 280.703 85.262C280.424 84.9247 280.006 84.756 279.449 84.756C278.891 84.756 278.451 84.9687 278.129 85.394C277.821 85.8047 277.667 86.3913 277.667 87.154H274.037C274.066 85.9073 274.33 84.866 274.829 84.03C275.342 83.194 276.009 82.578 276.831 82.182C277.667 81.786 278.591 81.588 279.603 81.588C281.348 81.588 282.661 82.0353 283.541 82.93C284.435 83.8247 284.883 84.9907 284.883 86.428C284.883 87.9973 284.347 89.4567 283.277 90.806C282.206 92.1407 280.842 93.446 279.185 94.722H285.125V97.78H274.081V94.986ZM286.869 95.14V92.104L293.821 82.16H298.023V91.884H299.827V95.14H298.023V98H294.261V95.14H286.869ZM294.525 86.296L290.829 91.884H294.525V86.296ZM100.652 132.08C101.546 132.271 102.265 132.718 102.808 133.422C103.35 134.111 103.622 134.903 103.622 135.798C103.622 137.089 103.167 138.115 102.258 138.878C101.363 139.626 100.109 140 98.4955 140H91.3015V124.556H98.2535C99.8228 124.556 101.048 124.915 101.928 125.634C102.822 126.353 103.27 127.328 103.27 128.56C103.27 129.469 103.028 130.225 102.544 130.826C102.074 131.427 101.444 131.845 100.652 132.08ZM95.0635 130.804H97.5275C98.1435 130.804 98.6128 130.672 98.9355 130.408C99.2728 130.129 99.4415 129.726 99.4415 129.198C99.4415 128.67 99.2728 128.267 98.9355 127.988C98.6128 127.709 98.1435 127.57 97.5275 127.57H95.0635V130.804ZM97.8355 136.964C98.4662 136.964 98.9502 136.825 99.2875 136.546C99.6395 136.253 99.8155 135.835 99.8155 135.292C99.8155 134.749 99.6322 134.324 99.2655 134.016C98.9135 133.708 98.4222 133.554 97.7915 133.554H95.0635V136.964H97.8355ZM118.343 127.724L110.643 145.83H106.595L109.411 139.582L104.417 127.724H108.619L111.457 135.402L114.273 127.724H118.343ZM132.242 140L129.03 134.17H128.128V140H124.366V124.556H130.68C131.897 124.556 132.931 124.769 133.782 125.194C134.647 125.619 135.293 126.206 135.718 126.954C136.143 127.687 136.356 128.509 136.356 129.418C136.356 130.445 136.063 131.361 135.476 132.168C134.904 132.975 134.053 133.547 132.924 133.884L136.488 140H132.242ZM128.128 131.508H130.46C131.149 131.508 131.663 131.339 132 131.002C132.352 130.665 132.528 130.188 132.528 129.572C132.528 128.985 132.352 128.523 132 128.186C131.663 127.849 131.149 127.68 130.46 127.68H128.128V131.508ZM144.306 140.176C143.103 140.176 142.018 139.919 141.05 139.406C140.096 138.893 139.341 138.159 138.784 137.206C138.241 136.253 137.97 135.138 137.97 133.862C137.97 132.601 138.248 131.493 138.806 130.54C139.363 129.572 140.126 128.831 141.094 128.318C142.062 127.805 143.147 127.548 144.35 127.548C145.552 127.548 146.638 127.805 147.606 128.318C148.574 128.831 149.336 129.572 149.894 130.54C150.451 131.493 150.73 132.601 150.73 133.862C150.73 135.123 150.444 136.238 149.872 137.206C149.314 138.159 148.544 138.893 147.562 139.406C146.594 139.919 145.508 140.176 144.306 140.176ZM144.306 136.92C145.024 136.92 145.633 136.656 146.132 136.128C146.645 135.6 146.902 134.845 146.902 133.862C146.902 132.879 146.652 132.124 146.154 131.596C145.67 131.068 145.068 130.804 144.35 130.804C143.616 130.804 143.008 131.068 142.524 131.596C142.04 132.109 141.798 132.865 141.798 133.862C141.798 134.845 142.032 135.6 142.502 136.128C142.986 136.656 143.587 136.92 144.306 136.92ZM159.567 136.81V140H157.653C156.289 140 155.226 139.67 154.463 139.01C153.701 138.335 153.319 137.243 153.319 135.732V130.848H151.823V127.724H153.319V124.732H157.081V127.724H159.545V130.848H157.081V135.776C157.081 136.143 157.169 136.407 157.345 136.568C157.521 136.729 157.815 136.81 158.225 136.81H159.567ZM160.915 133.84C160.915 132.579 161.149 131.471 161.619 130.518C162.103 129.565 162.755 128.831 163.577 128.318C164.398 127.805 165.315 127.548 166.327 127.548C167.192 127.548 167.947 127.724 168.593 128.076C169.253 128.428 169.759 128.89 170.111 129.462V127.724H173.873V140H170.111V138.262C169.744 138.834 169.231 139.296 168.571 139.648C167.925 140 167.17 140.176 166.305 140.176C165.307 140.176 164.398 139.919 163.577 139.406C162.755 138.878 162.103 138.137 161.619 137.184C161.149 136.216 160.915 135.101 160.915 133.84ZM170.111 133.862C170.111 132.923 169.847 132.183 169.319 131.64C168.805 131.097 168.175 130.826 167.427 130.826C166.679 130.826 166.041 131.097 165.513 131.64C164.999 132.168 164.743 132.901 164.743 133.84C164.743 134.779 164.999 135.527 165.513 136.084C166.041 136.627 166.679 136.898 167.427 136.898C168.175 136.898 168.805 136.627 169.319 136.084C169.847 135.541 170.111 134.801 170.111 133.862ZM180.356 129.77C180.796 129.095 181.346 128.567 182.006 128.186C182.666 127.79 183.4 127.592 184.206 127.592V131.574H183.172C182.234 131.574 181.53 131.779 181.06 132.19C180.591 132.586 180.356 133.29 180.356 134.302V140H176.594V127.724H180.356V129.77ZM185.257 133.84C185.257 132.579 185.491 131.471 185.961 130.518C186.445 129.565 187.097 128.831 187.919 128.318C188.74 127.805 189.657 127.548 190.669 127.548C191.534 127.548 192.289 127.724 192.935 128.076C193.595 128.428 194.101 128.89 194.453 129.462V127.724H198.215V140H194.453V138.262C194.086 138.834 193.573 139.296 192.913 139.648C192.267 140 191.512 140.176 190.647 140.176C189.649 140.176 188.74 139.919 187.919 139.406C187.097 138.878 186.445 138.137 185.961 137.184C185.491 136.216 185.257 135.101 185.257 133.84ZM194.453 133.862C194.453 132.923 194.189 132.183 193.661 131.64C193.147 131.097 192.517 130.826 191.769 130.826C191.021 130.826 190.383 131.097 189.855 131.64C189.341 132.168 189.085 132.901 189.085 133.84C189.085 134.779 189.341 135.527 189.855 136.084C190.383 136.627 191.021 136.898 191.769 136.898C192.517 136.898 193.147 136.627 193.661 136.084C194.189 135.541 194.453 134.801 194.453 133.862ZM200.188 133.862C200.188 132.586 200.445 131.471 200.958 130.518C201.486 129.565 202.212 128.831 203.136 128.318C204.075 127.805 205.146 127.548 206.348 127.548C207.888 127.548 209.172 127.951 210.198 128.758C211.24 129.565 211.922 130.701 212.244 132.168H208.24C207.903 131.229 207.25 130.76 206.282 130.76C205.593 130.76 205.043 131.031 204.632 131.574C204.222 132.102 204.016 132.865 204.016 133.862C204.016 134.859 204.222 135.629 204.632 136.172C205.043 136.7 205.593 136.964 206.282 136.964C207.25 136.964 207.903 136.495 208.24 135.556H212.244C211.922 136.993 211.24 138.123 210.198 138.944C209.157 139.765 207.874 140.176 206.348 140.176C205.146 140.176 204.075 139.919 203.136 139.406C202.212 138.893 201.486 138.159 200.958 137.206C200.445 136.253 200.188 135.138 200.188 133.862ZM221.099 136.81V140H219.185C217.821 140 216.757 139.67 215.995 139.01C215.232 138.335 214.851 137.243 214.851 135.732V130.848H213.355V127.724H214.851V124.732H218.613V127.724H221.077V130.848H218.613V135.776C218.613 136.143 218.701 136.407 218.877 136.568C219.053 136.729 219.346 136.81 219.757 136.81H221.099ZM233.642 124.556C235.27 124.556 236.693 124.879 237.91 125.524C239.128 126.169 240.066 127.079 240.726 128.252C241.401 129.411 241.738 130.753 241.738 132.278C241.738 133.789 241.401 135.131 240.726 136.304C240.066 137.477 239.12 138.387 237.888 139.032C236.671 139.677 235.256 140 233.642 140H227.856V124.556H233.642ZM233.4 136.744C234.823 136.744 235.93 136.355 236.722 135.578C237.514 134.801 237.91 133.701 237.91 132.278C237.91 130.855 237.514 129.748 236.722 128.956C235.93 128.164 234.823 127.768 233.4 127.768H231.618V136.744H233.4ZM245.733 126.448C245.073 126.448 244.53 126.257 244.105 125.876C243.694 125.48 243.489 124.996 243.489 124.424C243.489 123.837 243.694 123.353 244.105 122.972C244.53 122.576 245.073 122.378 245.733 122.378C246.378 122.378 246.906 122.576 247.317 122.972C247.742 123.353 247.955 123.837 247.955 124.424C247.955 124.996 247.742 125.48 247.317 125.876C246.906 126.257 246.378 126.448 245.733 126.448ZM247.603 127.724V140H243.841V127.724H247.603ZM255.323 140.176C254.252 140.176 253.299 139.993 252.463 139.626C251.627 139.259 250.967 138.761 250.483 138.13C249.999 137.485 249.728 136.766 249.669 135.974H253.387C253.431 136.399 253.629 136.744 253.981 137.008C254.333 137.272 254.766 137.404 255.279 137.404C255.748 137.404 256.108 137.316 256.357 137.14C256.621 136.949 256.753 136.707 256.753 136.414C256.753 136.062 256.57 135.805 256.203 135.644C255.836 135.468 255.242 135.277 254.421 135.072C253.541 134.867 252.808 134.654 252.221 134.434C251.634 134.199 251.128 133.84 250.703 133.356C250.278 132.857 250.065 132.19 250.065 131.354C250.065 130.65 250.256 130.012 250.637 129.44C251.033 128.853 251.605 128.391 252.353 128.054C253.116 127.717 254.018 127.548 255.059 127.548C256.599 127.548 257.809 127.929 258.689 128.692C259.584 129.455 260.097 130.467 260.229 131.728H256.753C256.694 131.303 256.504 130.965 256.181 130.716C255.873 130.467 255.462 130.342 254.949 130.342C254.509 130.342 254.172 130.43 253.937 130.606C253.702 130.767 253.585 130.995 253.585 131.288C253.585 131.64 253.768 131.904 254.135 132.08C254.516 132.256 255.103 132.432 255.895 132.608C256.804 132.843 257.545 133.077 258.117 133.312C258.689 133.532 259.188 133.899 259.613 134.412C260.053 134.911 260.28 135.585 260.295 136.436C260.295 137.155 260.09 137.8 259.679 138.372C259.283 138.929 258.704 139.369 257.941 139.692C257.193 140.015 256.32 140.176 255.323 140.176ZM269.438 136.81V140H267.524C266.16 140 265.097 139.67 264.334 139.01C263.572 138.335 263.19 137.243 263.19 135.732V130.848H261.694V127.724H263.19V124.732H266.952V127.724H269.416V130.848H266.952V135.776C266.952 136.143 267.04 136.407 267.216 136.568C267.392 136.729 267.686 136.81 268.096 136.81H269.438ZM275.296 129.77C275.736 129.095 276.286 128.567 276.946 128.186C277.606 127.79 278.339 127.592 279.146 127.592V131.574H278.112C277.173 131.574 276.469 131.779 276 132.19C275.531 132.586 275.296 133.29 275.296 134.302V140H271.534V127.724H275.296V129.77ZM282.836 126.448C282.176 126.448 281.633 126.257 281.208 125.876C280.797 125.48 280.592 124.996 280.592 124.424C280.592 123.837 280.797 123.353 281.208 122.972C281.633 122.576 282.176 122.378 282.836 122.378C283.481 122.378 284.009 122.576 284.42 122.972C284.845 123.353 285.058 123.837 285.058 124.424C285.058 124.996 284.845 125.48 284.42 125.876C284.009 126.257 283.481 126.448 282.836 126.448ZM284.706 127.724V140H280.944V127.724H284.706ZM286.684 133.862C286.684 132.586 286.941 131.471 287.454 130.518C287.982 129.565 288.708 128.831 289.632 128.318C290.571 127.805 291.642 127.548 292.844 127.548C294.384 127.548 295.668 127.951 296.694 128.758C297.736 129.565 298.418 130.701 298.74 132.168H294.736C294.399 131.229 293.746 130.76 292.778 130.76C292.089 130.76 291.539 131.031 291.128 131.574C290.718 132.102 290.512 132.865 290.512 133.862C290.512 134.859 290.718 135.629 291.128 136.172C291.539 136.7 292.089 136.964 292.778 136.964C293.746 136.964 294.399 136.495 294.736 135.556H298.74C298.418 136.993 297.736 138.123 296.694 138.944C295.653 139.765 294.37 140.176 292.844 140.176C291.642 140.176 290.571 139.919 289.632 139.406C288.708 138.893 287.982 138.159 287.454 137.206C286.941 136.253 286.684 135.138 286.684 133.862ZM307.595 136.81V140H305.681C304.317 140 303.253 139.67 302.491 139.01C301.728 138.335 301.347 137.243 301.347 135.732V130.848H299.851V127.724H301.347V124.732H305.109V127.724H307.573V130.848H305.109V135.776C305.109 136.143 305.197 136.407 305.373 136.568C305.549 136.729 305.842 136.81 306.253 136.81H307.595ZM314.11 128.472C314.169 126.903 314.682 125.693 315.65 124.842C316.618 123.991 317.931 123.566 319.588 123.566C320.688 123.566 321.627 123.757 322.404 124.138C323.196 124.519 323.79 125.04 324.186 125.7C324.597 126.36 324.802 127.101 324.802 127.922C324.802 128.89 324.56 129.682 324.076 130.298C323.592 130.899 323.028 131.31 322.382 131.53V131.618C323.218 131.897 323.878 132.359 324.362 133.004C324.846 133.649 325.088 134.478 325.088 135.49C325.088 136.399 324.876 137.206 324.45 137.91C324.04 138.599 323.431 139.142 322.624 139.538C321.832 139.934 320.886 140.132 319.786 140.132C318.026 140.132 316.618 139.699 315.562 138.834C314.521 137.969 313.971 136.663 313.912 134.918H317.564C317.579 135.563 317.762 136.077 318.114 136.458C318.466 136.825 318.98 137.008 319.654 137.008C320.226 137.008 320.666 136.847 320.974 136.524C321.297 136.187 321.458 135.747 321.458 135.204C321.458 134.5 321.231 133.994 320.776 133.686C320.336 133.363 319.625 133.202 318.642 133.202H317.938V130.144H318.642C319.39 130.144 319.992 130.019 320.446 129.77C320.916 129.506 321.15 129.044 321.15 128.384C321.15 127.856 321.004 127.445 320.71 127.152C320.417 126.859 320.014 126.712 319.5 126.712C318.943 126.712 318.525 126.881 318.246 127.218C317.982 127.555 317.828 127.973 317.784 128.472H314.11ZM326.903 127.438V123.94H332.997V140H329.081V127.438H326.903ZM335.658 137.14V134.104L342.61 124.16H346.812V133.884H348.616V137.14H346.812V140H343.05V137.14H335.658ZM343.314 128.296L339.618 133.884H343.314V128.296ZM350.063 127.438V123.94H356.157V140H352.241V127.438H350.063ZM181.948 157.556V173H178.186V157.556H181.948ZM198.491 173H194.729L188.437 163.474V173H184.675V157.556H188.437L194.729 167.126V157.556H198.491V173ZM215.716 157.556L210.238 173H205.53L200.052 157.556H204.056L207.884 169.216L211.734 157.556H215.716ZM221.05 157.556V173H217.288V157.556H221.05ZM223.138 165.256C223.138 163.731 223.468 162.374 224.128 161.186C224.788 159.983 225.705 159.052 226.878 158.392C228.066 157.717 229.408 157.38 230.904 157.38C232.737 157.38 234.307 157.864 235.612 158.832C236.917 159.8 237.79 161.12 238.23 162.792H234.094C233.786 162.147 233.346 161.655 232.774 161.318C232.217 160.981 231.579 160.812 230.86 160.812C229.701 160.812 228.763 161.215 228.044 162.022C227.325 162.829 226.966 163.907 226.966 165.256C226.966 166.605 227.325 167.683 228.044 168.49C228.763 169.297 229.701 169.7 230.86 169.7C231.579 169.7 232.217 169.531 232.774 169.194C233.346 168.857 233.786 168.365 234.094 167.72H238.23C237.79 169.392 236.917 170.712 235.612 171.68C234.307 172.633 232.737 173.11 230.904 173.11C229.408 173.11 228.066 172.78 226.878 172.12C225.705 171.445 224.788 170.514 224.128 169.326C223.468 168.138 223.138 166.781 223.138 165.256ZM251.644 157.556V160.57H247.552V173H243.79V160.57H239.698V157.556H251.644ZM263.146 170.272H257.382L256.458 173H252.52L258.108 157.556H262.464L268.052 173H264.07L263.146 170.272ZM262.178 167.368L260.264 161.714L258.372 167.368H262.178Z" fill="#FE7011"/>
</svg>
