<svg width="535" height="31" viewBox="0 0 535 31" fill="none" xmlns="http://www.w3.org/2000/svg">
<path d="M0.486 30V0.599998H13.212C15.844 0.599998 18.112 1.034 20.016 1.902C21.92 2.742 23.39 3.96 24.426 5.556C25.462 7.152 25.98 9.056 25.98 11.268C25.98 13.452 25.462 15.342 24.426 16.938C23.39 18.534 21.92 19.766 20.016 20.634C18.112 21.474 15.844 21.894 13.212 21.894H4.266L7.29 18.828V30H0.486ZM7.29 19.584L4.266 16.35H12.834C14.934 16.35 16.502 15.902 17.538 15.006C18.574 14.11 19.092 12.864 19.092 11.268C19.092 9.644 18.574 8.384 17.538 7.488C16.502 6.592 14.934 6.144 12.834 6.144H4.266L7.29 2.91V19.584ZM30.8376 30V0.599998H43.5636C46.1956 0.599998 48.4636 1.034 50.3676 1.902C52.2716 2.742 53.7416 3.96 54.7776 5.556C55.8136 7.152 56.3316 9.056 56.3316 11.268C56.3316 13.452 55.8136 15.342 54.7776 16.938C53.7416 18.506 52.2716 19.71 50.3676 20.55C48.4636 21.39 46.1956 21.81 43.5636 21.81H34.6176L37.6416 18.828V30H30.8376ZM49.5276 30L42.1776 19.332H49.4436L56.8776 30H49.5276ZM37.6416 19.584L34.6176 16.392H43.1856C45.2856 16.392 46.8536 15.944 47.8896 15.048C48.9256 14.124 49.4436 12.864 49.4436 11.268C49.4436 9.644 48.9256 8.384 47.8896 7.488C46.8536 6.592 45.2856 6.144 43.1856 6.144H34.6176L37.6416 2.91V19.584ZM76.0023 30.504C73.6783 30.504 71.5223 30.126 69.5343 29.37C67.5743 28.614 65.8663 27.55 64.4103 26.178C62.9823 24.806 61.8623 23.196 61.0503 21.348C60.2663 19.5 59.8743 17.484 59.8743 15.3C59.8743 13.116 60.2663 11.1 61.0503 9.252C61.8623 7.404 62.9963 5.794 64.4523 4.422C65.9083 3.05 67.6163 1.986 69.5763 1.23C71.5363 0.473999 73.6643 0.0959995 75.9603 0.0959995C78.2843 0.0959995 80.4123 0.473999 82.3443 1.23C84.3043 1.986 85.9983 3.05 87.4263 4.422C88.8823 5.794 90.0163 7.404 90.8283 9.252C91.6403 11.072 92.0463 13.088 92.0463 15.3C92.0463 17.484 91.6403 19.514 90.8283 21.39C90.0163 23.238 88.8823 24.848 87.4263 26.22C85.9983 27.564 84.3043 28.614 82.3443 29.37C80.4123 30.126 78.2983 30.504 76.0023 30.504ZM75.9603 24.708C77.2763 24.708 78.4803 24.484 79.5723 24.036C80.6923 23.588 81.6723 22.944 82.5123 22.104C83.3523 21.264 83.9963 20.27 84.4443 19.122C84.9203 17.974 85.1583 16.7 85.1583 15.3C85.1583 13.9 84.9203 12.626 84.4443 11.478C83.9963 10.33 83.3523 9.336 82.5123 8.496C81.7003 7.656 80.7343 7.012 79.6143 6.564C78.4943 6.116 77.2763 5.892 75.9603 5.892C74.6443 5.892 73.4263 6.116 72.3063 6.564C71.2143 7.012 70.2483 7.656 69.4083 8.496C68.5683 9.336 67.9103 10.33 67.4343 11.478C66.9863 12.626 66.7623 13.9 66.7623 15.3C66.7623 16.672 66.9863 17.946 67.4343 19.122C67.9103 20.27 68.5543 21.264 69.3663 22.104C70.2063 22.944 71.1863 23.588 72.3063 24.036C73.4263 24.484 74.6443 24.708 75.9603 24.708ZM101.963 30.504C99.9746 30.504 98.1406 30.14 96.4606 29.412C94.8086 28.656 93.4506 27.592 92.3866 26.22L96.1666 21.684C96.9786 22.748 97.8326 23.56 98.7286 24.12C99.6246 24.652 100.591 24.918 101.627 24.918C104.399 24.918 105.785 23.294 105.785 20.046V6.06H95.4526V0.599998H112.547V19.668C112.547 23.308 111.651 26.024 109.859 27.816C108.067 29.608 105.435 30.504 101.963 30.504ZM125.525 12.444H139.679V17.736H125.525V12.444ZM126.029 24.54H142.031V30H119.267V0.599998H141.485V6.06H126.029V24.54ZM161.515 30.504C159.247 30.504 157.133 30.14 155.173 29.412C153.241 28.656 151.561 27.592 150.133 26.22C148.705 24.848 147.585 23.238 146.773 21.39C145.989 19.542 145.597 17.512 145.597 15.3C145.597 13.088 145.989 11.058 146.773 9.21C147.585 7.362 148.705 5.752 150.133 4.38C151.589 3.008 153.283 1.958 155.215 1.23C157.147 0.473999 159.261 0.0959995 161.557 0.0959995C164.105 0.0959995 166.401 0.544 168.445 1.44C170.517 2.308 172.253 3.596 173.653 5.304L169.285 9.336C168.277 8.188 167.157 7.334 165.925 6.774C164.693 6.186 163.349 5.892 161.893 5.892C160.521 5.892 159.261 6.116 158.113 6.564C156.965 7.012 155.971 7.656 155.131 8.496C154.291 9.336 153.633 10.33 153.157 11.478C152.709 12.626 152.485 13.9 152.485 15.3C152.485 16.7 152.709 17.974 153.157 19.122C153.633 20.27 154.291 21.264 155.131 22.104C155.971 22.944 156.965 23.588 158.113 24.036C159.261 24.484 160.521 24.708 161.893 24.708C163.349 24.708 164.693 24.428 165.925 23.868C167.157 23.28 168.277 22.398 169.285 21.222L173.653 25.254C172.253 26.962 170.517 28.264 168.445 29.16C166.401 30.056 164.091 30.504 161.515 30.504ZM184.051 30V6.144H174.643V0.599998H200.263V6.144H190.855V30H184.051ZM215.818 30V0.599998H221.446L238.792 21.768H236.062V0.599998H242.782V30H237.196L219.808 8.832H222.538V30H215.818ZM264.018 30.504C261.694 30.504 259.538 30.126 257.55 29.37C255.59 28.614 253.882 27.55 252.426 26.178C250.998 24.806 249.878 23.196 249.066 21.348C248.282 19.5 247.89 17.484 247.89 15.3C247.89 13.116 248.282 11.1 249.066 9.252C249.878 7.404 251.012 5.794 252.468 4.422C253.924 3.05 255.632 1.986 257.592 1.23C259.552 0.473999 261.68 0.0959995 263.976 0.0959995C266.3 0.0959995 268.428 0.473999 270.36 1.23C272.32 1.986 274.014 3.05 275.442 4.422C276.898 5.794 278.032 7.404 278.844 9.252C279.656 11.072 280.062 13.088 280.062 15.3C280.062 17.484 279.656 19.514 278.844 21.39C278.032 23.238 276.898 24.848 275.442 26.22C274.014 27.564 272.32 28.614 270.36 29.37C268.428 30.126 266.314 30.504 264.018 30.504ZM263.976 24.708C265.292 24.708 266.496 24.484 267.588 24.036C268.708 23.588 269.688 22.944 270.528 22.104C271.368 21.264 272.012 20.27 272.46 19.122C272.936 17.974 273.174 16.7 273.174 15.3C273.174 13.9 272.936 12.626 272.46 11.478C272.012 10.33 271.368 9.336 270.528 8.496C269.716 7.656 268.75 7.012 267.63 6.564C266.51 6.116 265.292 5.892 263.976 5.892C262.66 5.892 261.442 6.116 260.322 6.564C259.23 7.012 258.264 7.656 257.424 8.496C256.584 9.336 255.926 10.33 255.45 11.478C255.002 12.626 254.778 13.9 254.778 15.3C254.778 16.672 255.002 17.946 255.45 19.122C255.926 20.27 256.57 21.264 257.382 22.104C258.222 22.944 259.202 23.588 260.322 24.036C261.442 24.484 262.66 24.708 263.976 24.708ZM285.175 30V0.599998H290.803L303.319 21.348H300.337L312.643 0.599998H318.229L318.313 30H311.929L311.887 10.386H313.063L303.235 26.892H300.169L290.131 10.386H291.559V30H285.175ZM325.289 30V0.599998H332.093V30H325.289ZM339.07 30V0.599998H344.698L362.044 21.768H359.314V0.599998H366.034V30H360.448L343.06 8.832H345.79V30H339.07ZM369.126 30L382.23 0.599998H388.95L402.096 30H394.956L384.204 4.044H386.892L376.098 30H369.126ZM375.678 23.7L377.484 18.534H392.604L394.452 23.7H375.678ZM409.76 30V6.144H400.352V0.599998H425.972V6.144H416.564V30H409.76ZM429.632 30V0.599998H436.436V30H429.632ZM457.694 30.504C455.37 30.504 453.214 30.126 451.226 29.37C449.266 28.614 447.558 27.55 446.102 26.178C444.674 24.806 443.554 23.196 442.742 21.348C441.958 19.5 441.566 17.484 441.566 15.3C441.566 13.116 441.958 11.1 442.742 9.252C443.554 7.404 444.688 5.794 446.144 4.422C447.6 3.05 449.308 1.986 451.268 1.23C453.228 0.473999 455.356 0.0959995 457.652 0.0959995C459.976 0.0959995 462.104 0.473999 464.036 1.23C465.996 1.986 467.69 3.05 469.118 4.422C470.574 5.794 471.708 7.404 472.52 9.252C473.332 11.072 473.738 13.088 473.738 15.3C473.738 17.484 473.332 19.514 472.52 21.39C471.708 23.238 470.574 24.848 469.118 26.22C467.69 27.564 465.996 28.614 464.036 29.37C462.104 30.126 459.99 30.504 457.694 30.504ZM457.652 24.708C458.968 24.708 460.172 24.484 461.264 24.036C462.384 23.588 463.364 22.944 464.204 22.104C465.044 21.264 465.688 20.27 466.136 19.122C466.612 17.974 466.85 16.7 466.85 15.3C466.85 13.9 466.612 12.626 466.136 11.478C465.688 10.33 465.044 9.336 464.204 8.496C463.392 7.656 462.426 7.012 461.306 6.564C460.186 6.116 458.968 5.892 457.652 5.892C456.336 5.892 455.118 6.116 453.998 6.564C452.906 7.012 451.94 7.656 451.1 8.496C450.26 9.336 449.602 10.33 449.126 11.478C448.678 12.626 448.454 13.9 448.454 15.3C448.454 16.672 448.678 17.946 449.126 19.122C449.602 20.27 450.246 21.264 451.058 22.104C451.898 22.944 452.878 23.588 453.998 24.036C455.118 24.484 456.336 24.708 457.652 24.708ZM478.851 30V0.599998H484.479L501.825 21.768H499.095V0.599998H505.815V30H500.229L482.841 8.832H485.571V30H478.851ZM522.431 30.504C520.079 30.504 517.825 30.196 515.669 29.58C513.513 28.936 511.777 28.11 510.461 27.102L512.771 21.978C514.031 22.874 515.515 23.616 517.223 24.204C518.959 24.764 520.709 25.044 522.473 25.044C523.817 25.044 524.895 24.918 525.707 24.666C526.547 24.386 527.163 24.008 527.555 23.532C527.947 23.056 528.143 22.51 528.143 21.894C528.143 21.11 527.835 20.494 527.219 20.046C526.603 19.57 525.791 19.192 524.783 18.912C523.775 18.604 522.655 18.324 521.423 18.072C520.219 17.792 519.001 17.456 517.769 17.064C516.565 16.672 515.459 16.168 514.451 15.552C513.443 14.936 512.617 14.124 511.973 13.116C511.357 12.108 511.049 10.82 511.049 9.252C511.049 7.572 511.497 6.046 512.393 4.674C513.317 3.274 514.689 2.168 516.509 1.356C518.357 0.515999 520.667 0.0959995 523.439 0.0959995C525.287 0.0959995 527.107 0.319999 528.899 0.767998C530.691 1.188 532.273 1.832 533.645 2.7L531.545 7.866C530.173 7.082 528.801 6.508 527.429 6.144C526.057 5.752 524.713 5.556 523.397 5.556C522.081 5.556 521.003 5.71 520.163 6.018C519.323 6.326 518.721 6.732 518.357 7.236C517.993 7.712 517.811 8.272 517.811 8.916C517.811 9.672 518.119 10.288 518.735 10.764C519.351 11.212 520.163 11.576 521.171 11.856C522.179 12.136 523.285 12.416 524.489 12.696C525.721 12.976 526.939 13.298 528.143 13.662C529.375 14.026 530.495 14.516 531.503 15.132C532.511 15.748 533.323 16.56 533.939 17.568C534.583 18.576 534.905 19.85 534.905 21.39C534.905 23.042 534.443 24.554 533.519 25.926C532.595 27.298 531.209 28.404 529.361 29.244C527.541 30.084 525.231 30.504 522.431 30.504Z" fill="url(#paint0_linear_222_21)"/>
<defs>
<linearGradient id="paint0_linear_222_21" x1="271.5" y1="-11" x2="271.5" y2="44" gradientUnits="userSpaceOnUse">
<stop stop-color="#98430A"/>
<stop offset="0.65" stop-color="#FE7011"/>
<stop offset="0.98" stop-color="#FDD24C"/>
</linearGradient>
</defs>
</svg>
